<svg xmlns="http://www.w3.org/2000/svg" width="176" height="176"><rect x="0" y="0" width="100%" height="100%" fill="rgb(155,105,52)"></rect><polyline points="0,0,22,22,0,22,0,0" stroke="#000" stroke-opacity="0.02" fill-opacity="0.046" fill="#222" transform="translate(0,22) scale(1,-1)"></polyline><polyline points="0,0,22,22,0,22,0,0" stroke="#000" stroke-opacity="0.02" fill-opacity="0.046" fill="#222" transform="translate(44,22) scale(-1,-1)"></polyline><polyline points="0,0,22,22,0,22,0,0" stroke="#000" stroke-opacity="0.02" fill-opacity="0.046" fill="#222" transform="translate(0,22) scale(1,1)"></polyline><polyline points="0,0,22,22,0,22,0,0" stroke="#000" stroke-opacity="0.02" fill-opacity="0.046" fill="#222" transform="translate(44,22) scale(-1,1)"></polyline><polyline points="0,0,22,22,0,22,0,0" stroke="#000" stroke-opacity="0.02" fill-opacity="0.046" fill="#222" transform="translate(66,0) scale(-1,1)"></polyline><polyline points="0,0,22,22,0,22,0,0" stroke="#000" stroke-opacity="0.02" fill-opacity="0.046" fill="#222" transform="translate(66,44) scale(1,-1)"></polyline><polyline points="0,0,22,22,0,22,0,0" stroke="#000" stroke-opacity="0.02" fill-opacity="0.11533333333333334" fill="#222" transform="translate(66,44) scale(-1,-1)"></polyline><polyline points="0,0,22,22,0,22,0,0" stroke="#000" stroke-opacity="0.02" fill-opacity="0.11533333333333334" fill="#222" transform="translate(66,0) scale(1,1)"></polyline><polyline points="0,0,22,22,0,22,0,0" stroke="#000" stroke-opacity="0.02" fill-opacity="0.11533333333333334" fill="#222" transform="translate(88,22) scale(1,-1)"></polyline><polyline points="0,0,22,22,0,22,0,0" stroke="#000" stroke-opacity="0.02" fill-opacity="0.11533333333333334" fill="#222" transform="translate(132,22) scale(-1,-1)"></polyline><polyline points="0,0,22,22,0,22,0,0" stroke="#000" stroke-opacity="0.02" fill-opacity="0.11533333333333334" fill="#222" transform="translate(88,22) scale(1,1)"></polyline><polyline points="0,0,22,22,0,22,0,0" stroke="#000" stroke-opacity="0.02" fill-opacity="0.11533333333333334" fill="#222" transform="translate(132,22) scale(-1,1)"></polyline><polyline points="0,0,22,22,0,22,0,0" stroke="#000" stroke-opacity="0.02" fill-opacity="0.08066666666666666" fill="#222" transform="translate(154,0) scale(-1,1)"></polyline><polyline points="0,0,22,22,0,22,0,0" stroke="#000" stroke-opacity="0.02" fill-opacity="0.08066666666666666" fill="#222" transform="translate(154,44) scale(1,-1)"></polyline><polyline points="0,0,22,22,0,22,0,0" stroke="#000" stroke-opacity="0.02" fill-opacity="0.046" fill="#222" transform="translate(154,44) scale(-1,-1)"></polyline><polyline points="0,0,22,22,0,22,0,0" stroke="#000" stroke-opacity="0.02" fill-opacity="0.046" fill="#222" transform="translate(154,0) scale(1,1)"></polyline><polyline points="0,0,22,22,0,22,0,0" stroke="#000" stroke-opacity="0.02" fill-opacity="0.046" fill="#222" transform="translate(22,44) scale(-1,1)"></polyline><polyline points="0,0,22,22,0,22,0,0" stroke="#000" stroke-opacity="0.02" fill-opacity="0.046" fill="#222" transform="translate(22,88) scale(1,-1)"></polyline><polyline points="0,0,22,22,0,22,0,0" stroke="#000" stroke-opacity="0.02" fill-opacity="0.15" fill="#222" transform="translate(22,88) scale(-1,-1)"></polyline><polyline points="0,0,22,22,0,22,0,0" stroke="#000" stroke-opacity="0.02" fill-opacity="0.15" fill="#222" transform="translate(22,44) scale(1,1)"></polyline><polyline points="0,0,22,22,0,22,0,0" stroke="#000" stroke-opacity="0.02" fill-opacity="0.15" fill="#222" transform="translate(44,66) scale(1,-1)"></polyline><polyline points="0,0,22,22,0,22,0,0" stroke="#000" stroke-opacity="0.02" fill-opacity="0.15" fill="#222" transform="translate(88,66) scale(-1,-1)"></polyline><polyline points="0,0,22,22,0,22,0,0" stroke="#000" stroke-opacity="0.02" fill-opacity="0.15" fill="#222" transform="translate(44,66) scale(1,1)"></polyline><polyline points="0,0,22,22,0,22,0,0" stroke="#000" stroke-opacity="0.02" fill-opacity="0.15" fill="#222" transform="translate(88,66) scale(-1,1)"></polyline><polyline points="0,0,22,22,0,22,0,0" stroke="#000" stroke-opacity="0.02" fill-opacity="0.098" fill="#222" transform="translate(110,44) scale(-1,1)"></polyline><polyline points="0,0,22,22,0,22,0,0" stroke="#000" stroke-opacity="0.02" fill-opacity="0.098" fill="#222" transform="translate(110,88) scale(1,-1)"></polyline><polyline points="0,0,22,22,0,22,0,0" stroke="#000" stroke-opacity="0.02" fill-opacity="0.07200000000000001" fill="#ddd" transform="translate(110,88) scale(-1,-1)"></polyline><polyline points="0,0,22,22,0,22,0,0" stroke="#000" stroke-opacity="0.02" fill-opacity="0.07200000000000001" fill="#ddd" transform="translate(110,44) scale(1,1)"></polyline><polyline points="0,0,22,22,0,22,0,0" stroke="#000" stroke-opacity="0.02" fill-opacity="0.07200000000000001" fill="#ddd" transform="translate(132,66) scale(1,-1)"></polyline><polyline points="0,0,22,22,0,22,0,0" stroke="#000" stroke-opacity="0.02" fill-opacity="0.07200000000000001" fill="#ddd" transform="translate(176,66) scale(-1,-1)"></polyline><polyline points="0,0,22,22,0,22,0,0" stroke="#000" stroke-opacity="0.02" fill-opacity="0.07200000000000001" fill="#ddd" transform="translate(132,66) scale(1,1)"></polyline><polyline points="0,0,22,22,0,22,0,0" stroke="#000" stroke-opacity="0.02" fill-opacity="0.07200000000000001" fill="#ddd" transform="translate(176,66) scale(-1,1)"></polyline><polyline points="0,0,22,22,0,22,0,0" stroke="#000" stroke-opacity="0.02" fill-opacity="0.12400000000000001" fill="#ddd" transform="translate(0,110) scale(1,-1)"></polyline><polyline points="0,0,22,22,0,22,0,0" stroke="#000" stroke-opacity="0.02" fill-opacity="0.12400000000000001" fill="#ddd" transform="translate(44,110) scale(-1,-1)"></polyline><polyline points="0,0,22,22,0,22,0,0" stroke="#000" stroke-opacity="0.02" fill-opacity="0.12400000000000001" fill="#ddd" transform="translate(0,110) scale(1,1)"></polyline><polyline points="0,0,22,22,0,22,0,0" stroke="#000" stroke-opacity="0.02" fill-opacity="0.12400000000000001" fill="#ddd" transform="translate(44,110) scale(-1,1)"></polyline><polyline points="0,0,22,22,0,22,0,0" stroke="#000" stroke-opacity="0.02" fill-opacity="0.08066666666666666" fill="#222" transform="translate(66,88) scale(-1,1)"></polyline><polyline points="0,0,22,22,0,22,0,0" stroke="#000" stroke-opacity="0.02" fill-opacity="0.08066666666666666" fill="#222" transform="translate(66,132) scale(1,-1)"></polyline><polyline points="0,0,22,22,0,22,0,0" stroke="#000" stroke-opacity="0.02" fill-opacity="0.11533333333333334" fill="#222" transform="translate(66,132) scale(-1,-1)"></polyline><polyline points="0,0,22,22,0,22,0,0" stroke="#000" stroke-opacity="0.02" fill-opacity="0.11533333333333334" fill="#222" transform="translate(66,88) scale(1,1)"></polyline><polyline points="0,0,22,22,0,22,0,0" stroke="#000" stroke-opacity="0.02" fill-opacity="0.11533333333333334" fill="#222" transform="translate(88,110) scale(1,-1)"></polyline><polyline points="0,0,22,22,0,22,0,0" stroke="#000" stroke-opacity="0.02" fill-opacity="0.11533333333333334" fill="#222" transform="translate(132,110) scale(-1,-1)"></polyline><polyline points="0,0,22,22,0,22,0,0" stroke="#000" stroke-opacity="0.02" fill-opacity="0.11533333333333334" fill="#222" transform="translate(88,110) scale(1,1)"></polyline><polyline points="0,0,22,22,0,22,0,0" stroke="#000" stroke-opacity="0.02" fill-opacity="0.11533333333333334" fill="#222" transform="translate(132,110) scale(-1,1)"></polyline><polyline points="0,0,22,22,0,22,0,0" stroke="#000" stroke-opacity="0.02" fill-opacity="0.046" fill="#222" transform="translate(154,88) scale(-1,1)"></polyline><polyline points="0,0,22,22,0,22,0,0" stroke="#000" stroke-opacity="0.02" fill-opacity="0.046" fill="#222" transform="translate(154,132) scale(1,-1)"></polyline><polyline points="0,0,22,22,0,22,0,0" stroke="#000" stroke-opacity="0.02" fill-opacity="0.08933333333333333" fill="#ddd" transform="translate(154,132) scale(-1,-1)"></polyline><polyline points="0,0,22,22,0,22,0,0" stroke="#000" stroke-opacity="0.02" fill-opacity="0.08933333333333333" fill="#ddd" transform="translate(154,88) scale(1,1)"></polyline><polyline points="0,0,22,22,0,22,0,0" stroke="#000" stroke-opacity="0.02" fill-opacity="0.08933333333333333" fill="#ddd" transform="translate(22,132) scale(-1,1)"></polyline><polyline points="0,0,22,22,0,22,0,0" stroke="#000" stroke-opacity="0.02" fill-opacity="0.08933333333333333" fill="#ddd" transform="translate(22,176) scale(1,-1)"></polyline><polyline points="0,0,22,22,0,22,0,0" stroke="#000" stroke-opacity="0.02" fill-opacity="0.08066666666666666" fill="#222" transform="translate(22,176) scale(-1,-1)"></polyline><polyline points="0,0,22,22,0,22,0,0" stroke="#000" stroke-opacity="0.02" fill-opacity="0.08066666666666666" fill="#222" transform="translate(22,132) scale(1,1)"></polyline><polyline points="0,0,22,22,0,22,0,0" stroke="#000" stroke-opacity="0.02" fill-opacity="0.08066666666666666" fill="#222" transform="translate(44,154) scale(1,-1)"></polyline><polyline points="0,0,22,22,0,22,0,0" stroke="#000" stroke-opacity="0.02" fill-opacity="0.08066666666666666" fill="#222" transform="translate(88,154) scale(-1,-1)"></polyline><polyline points="0,0,22,22,0,22,0,0" stroke="#000" stroke-opacity="0.02" fill-opacity="0.08066666666666666" fill="#222" transform="translate(44,154) scale(1,1)"></polyline><polyline points="0,0,22,22,0,22,0,0" stroke="#000" stroke-opacity="0.02" fill-opacity="0.08066666666666666" fill="#222" transform="translate(88,154) scale(-1,1)"></polyline><polyline points="0,0,22,22,0,22,0,0" stroke="#000" stroke-opacity="0.02" fill-opacity="0.14133333333333334" fill="#ddd" transform="translate(110,132) scale(-1,1)"></polyline><polyline points="0,0,22,22,0,22,0,0" stroke="#000" stroke-opacity="0.02" fill-opacity="0.14133333333333334" fill="#ddd" transform="translate(110,176) scale(1,-1)"></polyline><polyline points="0,0,22,22,0,22,0,0" stroke="#000" stroke-opacity="0.02" fill-opacity="0.10666666666666667" fill="#ddd" transform="translate(110,176) scale(-1,-1)"></polyline><polyline points="0,0,22,22,0,22,0,0" stroke="#000" stroke-opacity="0.02" fill-opacity="0.10666666666666667" fill="#ddd" transform="translate(110,132) scale(1,1)"></polyline><polyline points="0,0,22,22,0,22,0,0" stroke="#000" stroke-opacity="0.02" fill-opacity="0.10666666666666667" fill="#ddd" transform="translate(132,154) scale(1,-1)"></polyline><polyline points="0,0,22,22,0,22,0,0" stroke="#000" stroke-opacity="0.02" fill-opacity="0.10666666666666667" fill="#ddd" transform="translate(176,154) scale(-1,-1)"></polyline><polyline points="0,0,22,22,0,22,0,0" stroke="#000" stroke-opacity="0.02" fill-opacity="0.10666666666666667" fill="#ddd" transform="translate(132,154) scale(1,1)"></polyline><polyline points="0,0,22,22,0,22,0,0" stroke="#000" stroke-opacity="0.02" fill-opacity="0.10666666666666667" fill="#ddd" transform="translate(176,154) scale(-1,1)"></polyline></svg>