<svg xmlns="http://www.w3.org/2000/svg" width="156" height="78"><rect x="0" y="0" width="100%" height="100%" fill="rgb(69,123,138)"></rect><polyline points="13,0,26,13,13,26,0,13" fill="#ddd" fill-opacity="0.07200000000000001" stroke="#000" stroke-opacity="0.02" transform="translate(-13,-13)"></polyline><polyline points="13,0,26,13,13,26,0,13" fill="#ddd" fill-opacity="0.07200000000000001" stroke="#000" stroke-opacity="0.02" transform="translate(143,-13)"></polyline><polyline points="13,0,26,13,13,26,0,13" fill="#ddd" fill-opacity="0.07200000000000001" stroke="#000" stroke-opacity="0.02" transform="translate(-13,65)"></polyline><polyline points="13,0,26,13,13,26,0,13" fill="#ddd" fill-opacity="0.07200000000000001" stroke="#000" stroke-opacity="0.02" transform="translate(143,65)"></polyline><polyline points="13,0,26,13,13,26,0,13" fill="#ddd" fill-opacity="0.07200000000000001" stroke="#000" stroke-opacity="0.02" transform="translate(13,-13)"></polyline><polyline points="13,0,26,13,13,26,0,13" fill="#ddd" fill-opacity="0.07200000000000001" stroke="#000" stroke-opacity="0.02" transform="translate(13,65)"></polyline><polyline points="13,0,26,13,13,26,0,13" fill="#222" fill-opacity="0.06333333333333334" stroke="#000" stroke-opacity="0.02" transform="translate(39,-13)"></polyline><polyline points="13,0,26,13,13,26,0,13" fill="#222" fill-opacity="0.06333333333333334" stroke="#000" stroke-opacity="0.02" transform="translate(39,65)"></polyline><polyline points="13,0,26,13,13,26,0,13" fill="#222" fill-opacity="0.13266666666666665" stroke="#000" stroke-opacity="0.02" transform="translate(65,-13)"></polyline><polyline points="13,0,26,13,13,26,0,13" fill="#222" fill-opacity="0.13266666666666665" stroke="#000" stroke-opacity="0.02" transform="translate(65,65)"></polyline><polyline points="13,0,26,13,13,26,0,13" fill="#222" fill-opacity="0.11533333333333334" stroke="#000" stroke-opacity="0.02" transform="translate(91,-13)"></polyline><polyline points="13,0,26,13,13,26,0,13" fill="#222" fill-opacity="0.11533333333333334" stroke="#000" stroke-opacity="0.02" transform="translate(91,65)"></polyline><polyline points="13,0,26,13,13,26,0,13" fill="#ddd" fill-opacity="0.10666666666666667" stroke="#000" stroke-opacity="0.02" transform="translate(117,-13)"></polyline><polyline points="13,0,26,13,13,26,0,13" fill="#ddd" fill-opacity="0.10666666666666667" stroke="#000" stroke-opacity="0.02" transform="translate(117,65)"></polyline><polyline points="13,0,26,13,13,26,0,13" fill="#222" fill-opacity="0.13266666666666665" stroke="#000" stroke-opacity="0.02" transform="translate(0,0)"></polyline><polyline points="13,0,26,13,13,26,0,13" fill="#222" fill-opacity="0.13266666666666665" stroke="#000" stroke-opacity="0.02" transform="translate(156,0)"></polyline><polyline points="13,0,26,13,13,26,0,13" fill="#ddd" fill-opacity="0.12400000000000001" stroke="#000" stroke-opacity="0.02" transform="translate(26,0)"></polyline><polyline points="13,0,26,13,13,26,0,13" fill="#ddd" fill-opacity="0.10666666666666667" stroke="#000" stroke-opacity="0.02" transform="translate(52,0)"></polyline><polyline points="13,0,26,13,13,26,0,13" fill="#ddd" fill-opacity="0.02" stroke="#000" stroke-opacity="0.02" transform="translate(78,0)"></polyline><polyline points="13,0,26,13,13,26,0,13" fill="#222" fill-opacity="0.06333333333333334" stroke="#000" stroke-opacity="0.02" transform="translate(104,0)"></polyline><polyline points="13,0,26,13,13,26,0,13" fill="#222" fill-opacity="0.13266666666666665" stroke="#000" stroke-opacity="0.02" transform="translate(130,0)"></polyline><polyline points="13,0,26,13,13,26,0,13" fill="#ddd" fill-opacity="0.12400000000000001" stroke="#000" stroke-opacity="0.02" transform="translate(-13,13)"></polyline><polyline points="13,0,26,13,13,26,0,13" fill="#ddd" fill-opacity="0.12400000000000001" stroke="#000" stroke-opacity="0.02" transform="translate(143,13)"></polyline><polyline points="13,0,26,13,13,26,0,13" fill="#222" fill-opacity="0.13266666666666665" stroke="#000" stroke-opacity="0.02" transform="translate(13,13)"></polyline><polyline points="13,0,26,13,13,26,0,13" fill="#222" fill-opacity="0.08066666666666666" stroke="#000" stroke-opacity="0.02" transform="translate(39,13)"></polyline><polyline points="13,0,26,13,13,26,0,13" fill="#222" fill-opacity="0.08066666666666666" stroke="#000" stroke-opacity="0.02" transform="translate(65,13)"></polyline><polyline points="13,0,26,13,13,26,0,13" fill="#ddd" fill-opacity="0.03733333333333333" stroke="#000" stroke-opacity="0.02" transform="translate(91,13)"></polyline><polyline points="13,0,26,13,13,26,0,13" fill="#222" fill-opacity="0.098" stroke="#000" stroke-opacity="0.02" transform="translate(117,13)"></polyline><polyline points="13,0,26,13,13,26,0,13" fill="#ddd" fill-opacity="0.03733333333333333" stroke="#000" stroke-opacity="0.02" transform="translate(0,26)"></polyline><polyline points="13,0,26,13,13,26,0,13" fill="#ddd" fill-opacity="0.03733333333333333" stroke="#000" stroke-opacity="0.02" transform="translate(156,26)"></polyline><polyline points="13,0,26,13,13,26,0,13" fill="#ddd" fill-opacity="0.03733333333333333" stroke="#000" stroke-opacity="0.02" transform="translate(26,26)"></polyline><polyline points="13,0,26,13,13,26,0,13" fill="#222" fill-opacity="0.11533333333333334" stroke="#000" stroke-opacity="0.02" transform="translate(52,26)"></polyline><polyline points="13,0,26,13,13,26,0,13" fill="#222" fill-opacity="0.08066666666666666" stroke="#000" stroke-opacity="0.02" transform="translate(78,26)"></polyline><polyline points="13,0,26,13,13,26,0,13" fill="#ddd" fill-opacity="0.14133333333333334" stroke="#000" stroke-opacity="0.02" transform="translate(104,26)"></polyline><polyline points="13,0,26,13,13,26,0,13" fill="#222" fill-opacity="0.15" stroke="#000" stroke-opacity="0.02" transform="translate(130,26)"></polyline><polyline points="13,0,26,13,13,26,0,13" fill="#222" fill-opacity="0.046" stroke="#000" stroke-opacity="0.02" transform="translate(-13,39)"></polyline><polyline points="13,0,26,13,13,26,0,13" fill="#222" fill-opacity="0.046" stroke="#000" stroke-opacity="0.02" transform="translate(143,39)"></polyline><polyline points="13,0,26,13,13,26,0,13" fill="#ddd" fill-opacity="0.03733333333333333" stroke="#000" stroke-opacity="0.02" transform="translate(13,39)"></polyline><polyline points="13,0,26,13,13,26,0,13" fill="#ddd" fill-opacity="0.10666666666666667" stroke="#000" stroke-opacity="0.02" transform="translate(39,39)"></polyline><polyline points="13,0,26,13,13,26,0,13" fill="#222" fill-opacity="0.028666666666666667" stroke="#000" stroke-opacity="0.02" transform="translate(65,39)"></polyline><polyline points="13,0,26,13,13,26,0,13" fill="#ddd" fill-opacity="0.10666666666666667" stroke="#000" stroke-opacity="0.02" transform="translate(91,39)"></polyline><polyline points="13,0,26,13,13,26,0,13" fill="#ddd" fill-opacity="0.07200000000000001" stroke="#000" stroke-opacity="0.02" transform="translate(117,39)"></polyline><polyline points="13,0,26,13,13,26,0,13" fill="#ddd" fill-opacity="0.10666666666666667" stroke="#000" stroke-opacity="0.02" transform="translate(0,52)"></polyline><polyline points="13,0,26,13,13,26,0,13" fill="#ddd" fill-opacity="0.10666666666666667" stroke="#000" stroke-opacity="0.02" transform="translate(156,52)"></polyline><polyline points="13,0,26,13,13,26,0,13" fill="#ddd" fill-opacity="0.05466666666666667" stroke="#000" stroke-opacity="0.02" transform="translate(26,52)"></polyline><polyline points="13,0,26,13,13,26,0,13" fill="#ddd" fill-opacity="0.02" stroke="#000" stroke-opacity="0.02" transform="translate(52,52)"></polyline><polyline points="13,0,26,13,13,26,0,13" fill="#222" fill-opacity="0.08066666666666666" stroke="#000" stroke-opacity="0.02" transform="translate(78,52)"></polyline><polyline points="13,0,26,13,13,26,0,13" fill="#222" fill-opacity="0.06333333333333334" stroke="#000" stroke-opacity="0.02" transform="translate(104,52)"></polyline><polyline points="13,0,26,13,13,26,0,13" fill="#222" fill-opacity="0.098" stroke="#000" stroke-opacity="0.02" transform="translate(130,52)"></polyline></svg>