<svg xmlns="http://www.w3.org/2000/svg" width="280" height="792"><rect x="0" y="0" width="100%" height="100%" fill="rgb(56,151,97)"></rect><path d="M0 86 C 49 0, 91 0, 140 86 S 231 172, 280 86 S 371 0, 420, 86" fill="none" stroke="#222" opacity="0.098" stroke-width="22px" transform="translate(-70,-129)"></path><path d="M0 86 C 49 0, 91 0, 140 86 S 231 172, 280 86 S 371 0, 420, 86" fill="none" stroke="#222" opacity="0.098" stroke-width="22px" transform="translate(-70,663)"></path><path d="M0 86 C 49 0, 91 0, 140 86 S 231 172, 280 86 S 371 0, 420, 86" fill="none" stroke="#ddd" opacity="0.12400000000000001" stroke-width="22px" transform="translate(-70,-107)"></path><path d="M0 86 C 49 0, 91 0, 140 86 S 231 172, 280 86 S 371 0, 420, 86" fill="none" stroke="#ddd" opacity="0.12400000000000001" stroke-width="22px" transform="translate(-70,685)"></path><path d="M0 86 C 49 0, 91 0, 140 86 S 231 172, 280 86 S 371 0, 420, 86" fill="none" stroke="#222" opacity="0.11533333333333334" stroke-width="22px" transform="translate(-70,-85)"></path><path d="M0 86 C 49 0, 91 0, 140 86 S 231 172, 280 86 S 371 0, 420, 86" fill="none" stroke="#222" opacity="0.11533333333333334" stroke-width="22px" transform="translate(-70,707)"></path><path d="M0 86 C 49 0, 91 0, 140 86 S 231 172, 280 86 S 371 0, 420, 86" fill="none" stroke="#ddd" opacity="0.14133333333333334" stroke-width="22px" transform="translate(-70,-63)"></path><path d="M0 86 C 49 0, 91 0, 140 86 S 231 172, 280 86 S 371 0, 420, 86" fill="none" stroke="#ddd" opacity="0.14133333333333334" stroke-width="22px" transform="translate(-70,729)"></path><path d="M0 86 C 49 0, 91 0, 140 86 S 231 172, 280 86 S 371 0, 420, 86" fill="none" stroke="#222" opacity="0.06333333333333334" stroke-width="22px" transform="translate(-70,-41)"></path><path d="M0 86 C 49 0, 91 0, 140 86 S 231 172, 280 86 S 371 0, 420, 86" fill="none" stroke="#222" opacity="0.06333333333333334" stroke-width="22px" transform="translate(-70,751)"></path><path d="M0 86 C 49 0, 91 0, 140 86 S 231 172, 280 86 S 371 0, 420, 86" fill="none" stroke="#ddd" opacity="0.12400000000000001" stroke-width="22px" transform="translate(-70,-19)"></path><path d="M0 86 C 49 0, 91 0, 140 86 S 231 172, 280 86 S 371 0, 420, 86" fill="none" stroke="#ddd" opacity="0.12400000000000001" stroke-width="22px" transform="translate(-70,773)"></path><path d="M0 86 C 49 0, 91 0, 140 86 S 231 172, 280 86 S 371 0, 420, 86" fill="none" stroke="#ddd" opacity="0.05466666666666667" stroke-width="22px" transform="translate(-70,3)"></path><path d="M0 86 C 49 0, 91 0, 140 86 S 231 172, 280 86 S 371 0, 420, 86" fill="none" stroke="#ddd" opacity="0.05466666666666667" stroke-width="22px" transform="translate(-70,795)"></path><path d="M0 86 C 49 0, 91 0, 140 86 S 231 172, 280 86 S 371 0, 420, 86" fill="none" stroke="#ddd" opacity="0.05466666666666667" stroke-width="22px" transform="translate(-70,25)"></path><path d="M0 86 C 49 0, 91 0, 140 86 S 231 172, 280 86 S 371 0, 420, 86" fill="none" stroke="#ddd" opacity="0.05466666666666667" stroke-width="22px" transform="translate(-70,817)"></path><path d="M0 86 C 49 0, 91 0, 140 86 S 231 172, 280 86 S 371 0, 420, 86" fill="none" stroke="#ddd" opacity="0.03733333333333333" stroke-width="22px" transform="translate(-70,47)"></path><path d="M0 86 C 49 0, 91 0, 140 86 S 231 172, 280 86 S 371 0, 420, 86" fill="none" stroke="#ddd" opacity="0.03733333333333333" stroke-width="22px" transform="translate(-70,839)"></path><path d="M0 86 C 49 0, 91 0, 140 86 S 231 172, 280 86 S 371 0, 420, 86" fill="none" stroke="#222" opacity="0.15" stroke-width="22px" transform="translate(-70,69)"></path><path d="M0 86 C 49 0, 91 0, 140 86 S 231 172, 280 86 S 371 0, 420, 86" fill="none" stroke="#222" opacity="0.15" stroke-width="22px" transform="translate(-70,861)"></path><path d="M0 86 C 49 0, 91 0, 140 86 S 231 172, 280 86 S 371 0, 420, 86" fill="none" stroke="#ddd" opacity="0.12400000000000001" stroke-width="22px" transform="translate(-70,91)"></path><path d="M0 86 C 49 0, 91 0, 140 86 S 231 172, 280 86 S 371 0, 420, 86" fill="none" stroke="#ddd" opacity="0.12400000000000001" stroke-width="22px" transform="translate(-70,883)"></path><path d="M0 86 C 49 0, 91 0, 140 86 S 231 172, 280 86 S 371 0, 420, 86" fill="none" stroke="#ddd" opacity="0.14133333333333334" stroke-width="22px" transform="translate(-70,113)"></path><path d="M0 86 C 49 0, 91 0, 140 86 S 231 172, 280 86 S 371 0, 420, 86" fill="none" stroke="#ddd" opacity="0.14133333333333334" stroke-width="22px" transform="translate(-70,905)"></path><path d="M0 86 C 49 0, 91 0, 140 86 S 231 172, 280 86 S 371 0, 420, 86" fill="none" stroke="#222" opacity="0.028666666666666667" stroke-width="22px" transform="translate(-70,135)"></path><path d="M0 86 C 49 0, 91 0, 140 86 S 231 172, 280 86 S 371 0, 420, 86" fill="none" stroke="#222" opacity="0.028666666666666667" stroke-width="22px" transform="translate(-70,927)"></path><path d="M0 86 C 49 0, 91 0, 140 86 S 231 172, 280 86 S 371 0, 420, 86" fill="none" stroke="#ddd" opacity="0.12400000000000001" stroke-width="22px" transform="translate(-70,157)"></path><path d="M0 86 C 49 0, 91 0, 140 86 S 231 172, 280 86 S 371 0, 420, 86" fill="none" stroke="#ddd" opacity="0.12400000000000001" stroke-width="22px" transform="translate(-70,949)"></path><path d="M0 86 C 49 0, 91 0, 140 86 S 231 172, 280 86 S 371 0, 420, 86" fill="none" stroke="#222" opacity="0.098" stroke-width="22px" transform="translate(-70,179)"></path><path d="M0 86 C 49 0, 91 0, 140 86 S 231 172, 280 86 S 371 0, 420, 86" fill="none" stroke="#222" opacity="0.098" stroke-width="22px" transform="translate(-70,971)"></path><path d="M0 86 C 49 0, 91 0, 140 86 S 231 172, 280 86 S 371 0, 420, 86" fill="none" stroke="#ddd" opacity="0.08933333333333333" stroke-width="22px" transform="translate(-70,201)"></path><path d="M0 86 C 49 0, 91 0, 140 86 S 231 172, 280 86 S 371 0, 420, 86" fill="none" stroke="#ddd" opacity="0.08933333333333333" stroke-width="22px" transform="translate(-70,993)"></path><path d="M0 86 C 49 0, 91 0, 140 86 S 231 172, 280 86 S 371 0, 420, 86" fill="none" stroke="#ddd" opacity="0.08933333333333333" stroke-width="22px" transform="translate(-70,223)"></path><path d="M0 86 C 49 0, 91 0, 140 86 S 231 172, 280 86 S 371 0, 420, 86" fill="none" stroke="#ddd" opacity="0.08933333333333333" stroke-width="22px" transform="translate(-70,1015)"></path><path d="M0 86 C 49 0, 91 0, 140 86 S 231 172, 280 86 S 371 0, 420, 86" fill="none" stroke="#ddd" opacity="0.05466666666666667" stroke-width="22px" transform="translate(-70,245)"></path><path d="M0 86 C 49 0, 91 0, 140 86 S 231 172, 280 86 S 371 0, 420, 86" fill="none" stroke="#ddd" opacity="0.05466666666666667" stroke-width="22px" transform="translate(-70,1037)"></path><path d="M0 86 C 49 0, 91 0, 140 86 S 231 172, 280 86 S 371 0, 420, 86" fill="none" stroke="#222" opacity="0.13266666666666665" stroke-width="22px" transform="translate(-70,267)"></path><path d="M0 86 C 49 0, 91 0, 140 86 S 231 172, 280 86 S 371 0, 420, 86" fill="none" stroke="#222" opacity="0.13266666666666665" stroke-width="22px" transform="translate(-70,1059)"></path><path d="M0 86 C 49 0, 91 0, 140 86 S 231 172, 280 86 S 371 0, 420, 86" fill="none" stroke="#ddd" opacity="0.10666666666666667" stroke-width="22px" transform="translate(-70,289)"></path><path d="M0 86 C 49 0, 91 0, 140 86 S 231 172, 280 86 S 371 0, 420, 86" fill="none" stroke="#ddd" opacity="0.10666666666666667" stroke-width="22px" transform="translate(-70,1081)"></path><path d="M0 86 C 49 0, 91 0, 140 86 S 231 172, 280 86 S 371 0, 420, 86" fill="none" stroke="#ddd" opacity="0.05466666666666667" stroke-width="22px" transform="translate(-70,311)"></path><path d="M0 86 C 49 0, 91 0, 140 86 S 231 172, 280 86 S 371 0, 420, 86" fill="none" stroke="#ddd" opacity="0.05466666666666667" stroke-width="22px" transform="translate(-70,1103)"></path><path d="M0 86 C 49 0, 91 0, 140 86 S 231 172, 280 86 S 371 0, 420, 86" fill="none" stroke="#222" opacity="0.046" stroke-width="22px" transform="translate(-70,333)"></path><path d="M0 86 C 49 0, 91 0, 140 86 S 231 172, 280 86 S 371 0, 420, 86" fill="none" stroke="#222" opacity="0.046" stroke-width="22px" transform="translate(-70,1125)"></path><path d="M0 86 C 49 0, 91 0, 140 86 S 231 172, 280 86 S 371 0, 420, 86" fill="none" stroke="#222" opacity="0.13266666666666665" stroke-width="22px" transform="translate(-70,355)"></path><path d="M0 86 C 49 0, 91 0, 140 86 S 231 172, 280 86 S 371 0, 420, 86" fill="none" stroke="#222" opacity="0.13266666666666665" stroke-width="22px" transform="translate(-70,1147)"></path><path d="M0 86 C 49 0, 91 0, 140 86 S 231 172, 280 86 S 371 0, 420, 86" fill="none" stroke="#ddd" opacity="0.12400000000000001" stroke-width="22px" transform="translate(-70,377)"></path><path d="M0 86 C 49 0, 91 0, 140 86 S 231 172, 280 86 S 371 0, 420, 86" fill="none" stroke="#ddd" opacity="0.12400000000000001" stroke-width="22px" transform="translate(-70,1169)"></path><path d="M0 86 C 49 0, 91 0, 140 86 S 231 172, 280 86 S 371 0, 420, 86" fill="none" stroke="#ddd" opacity="0.05466666666666667" stroke-width="22px" transform="translate(-70,399)"></path><path d="M0 86 C 49 0, 91 0, 140 86 S 231 172, 280 86 S 371 0, 420, 86" fill="none" stroke="#ddd" opacity="0.05466666666666667" stroke-width="22px" transform="translate(-70,1191)"></path><path d="M0 86 C 49 0, 91 0, 140 86 S 231 172, 280 86 S 371 0, 420, 86" fill="none" stroke="#222" opacity="0.11533333333333334" stroke-width="22px" transform="translate(-70,421)"></path><path d="M0 86 C 49 0, 91 0, 140 86 S 231 172, 280 86 S 371 0, 420, 86" fill="none" stroke="#222" opacity="0.11533333333333334" stroke-width="22px" transform="translate(-70,1213)"></path><path d="M0 86 C 49 0, 91 0, 140 86 S 231 172, 280 86 S 371 0, 420, 86" fill="none" stroke="#222" opacity="0.028666666666666667" stroke-width="22px" transform="translate(-70,443)"></path><path d="M0 86 C 49 0, 91 0, 140 86 S 231 172, 280 86 S 371 0, 420, 86" fill="none" stroke="#222" opacity="0.028666666666666667" stroke-width="22px" transform="translate(-70,1235)"></path><path d="M0 86 C 49 0, 91 0, 140 86 S 231 172, 280 86 S 371 0, 420, 86" fill="none" stroke="#ddd" opacity="0.07200000000000001" stroke-width="22px" transform="translate(-70,465)"></path><path d="M0 86 C 49 0, 91 0, 140 86 S 231 172, 280 86 S 371 0, 420, 86" fill="none" stroke="#ddd" opacity="0.07200000000000001" stroke-width="22px" transform="translate(-70,1257)"></path><path d="M0 86 C 49 0, 91 0, 140 86 S 231 172, 280 86 S 371 0, 420, 86" fill="none" stroke="#ddd" opacity="0.05466666666666667" stroke-width="22px" transform="translate(-70,487)"></path><path d="M0 86 C 49 0, 91 0, 140 86 S 231 172, 280 86 S 371 0, 420, 86" fill="none" stroke="#ddd" opacity="0.05466666666666667" stroke-width="22px" transform="translate(-70,1279)"></path><path d="M0 86 C 49 0, 91 0, 140 86 S 231 172, 280 86 S 371 0, 420, 86" fill="none" stroke="#ddd" opacity="0.10666666666666667" stroke-width="22px" transform="translate(-70,509)"></path><path d="M0 86 C 49 0, 91 0, 140 86 S 231 172, 280 86 S 371 0, 420, 86" fill="none" stroke="#ddd" opacity="0.10666666666666667" stroke-width="22px" transform="translate(-70,1301)"></path><path d="M0 86 C 49 0, 91 0, 140 86 S 231 172, 280 86 S 371 0, 420, 86" fill="none" stroke="#ddd" opacity="0.12400000000000001" stroke-width="22px" transform="translate(-70,531)"></path><path d="M0 86 C 49 0, 91 0, 140 86 S 231 172, 280 86 S 371 0, 420, 86" fill="none" stroke="#ddd" opacity="0.12400000000000001" stroke-width="22px" transform="translate(-70,1323)"></path><path d="M0 86 C 49 0, 91 0, 140 86 S 231 172, 280 86 S 371 0, 420, 86" fill="none" stroke="#222" opacity="0.098" stroke-width="22px" transform="translate(-70,553)"></path><path d="M0 86 C 49 0, 91 0, 140 86 S 231 172, 280 86 S 371 0, 420, 86" fill="none" stroke="#222" opacity="0.098" stroke-width="22px" transform="translate(-70,1345)"></path><path d="M0 86 C 49 0, 91 0, 140 86 S 231 172, 280 86 S 371 0, 420, 86" fill="none" stroke="#222" opacity="0.08066666666666666" stroke-width="22px" transform="translate(-70,575)"></path><path d="M0 86 C 49 0, 91 0, 140 86 S 231 172, 280 86 S 371 0, 420, 86" fill="none" stroke="#222" opacity="0.08066666666666666" stroke-width="22px" transform="translate(-70,1367)"></path><path d="M0 86 C 49 0, 91 0, 140 86 S 231 172, 280 86 S 371 0, 420, 86" fill="none" stroke="#ddd" opacity="0.12400000000000001" stroke-width="22px" transform="translate(-70,597)"></path><path d="M0 86 C 49 0, 91 0, 140 86 S 231 172, 280 86 S 371 0, 420, 86" fill="none" stroke="#ddd" opacity="0.12400000000000001" stroke-width="22px" transform="translate(-70,1389)"></path><path d="M0 86 C 49 0, 91 0, 140 86 S 231 172, 280 86 S 371 0, 420, 86" fill="none" stroke="#ddd" opacity="0.12400000000000001" stroke-width="22px" transform="translate(-70,619)"></path><path d="M0 86 C 49 0, 91 0, 140 86 S 231 172, 280 86 S 371 0, 420, 86" fill="none" stroke="#ddd" opacity="0.12400000000000001" stroke-width="22px" transform="translate(-70,1411)"></path><path d="M0 86 C 49 0, 91 0, 140 86 S 231 172, 280 86 S 371 0, 420, 86" fill="none" stroke="#222" opacity="0.028666666666666667" stroke-width="22px" transform="translate(-70,641)"></path><path d="M0 86 C 49 0, 91 0, 140 86 S 231 172, 280 86 S 371 0, 420, 86" fill="none" stroke="#222" opacity="0.028666666666666667" stroke-width="22px" transform="translate(-70,1433)"></path></svg>