<svg xmlns="http://www.w3.org/2000/svg" width="600" height="600"><rect x="0" y="0" width="100%" height="100%" fill="rgb(140,67,70)"></rect><circle cx="0" cy="0" r="100" fill="#222" opacity="0.15"></circle><circle cx="600" cy="0" r="100" fill="#222" opacity="0.15"></circle><circle cx="0" cy="600" r="100" fill="#222" opacity="0.15"></circle><circle cx="600" cy="600" r="100" fill="#222" opacity="0.15"></circle><circle cx="100" cy="0" r="100" fill="#222" opacity="0.15"></circle><circle cx="100" cy="600" r="100" fill="#222" opacity="0.15"></circle><circle cx="200" cy="0" r="100" fill="#222" opacity="0.06333333333333334"></circle><circle cx="200" cy="600" r="100" fill="#222" opacity="0.06333333333333334"></circle><circle cx="300" cy="0" r="100" fill="#222" opacity="0.15"></circle><circle cx="300" cy="600" r="100" fill="#222" opacity="0.15"></circle><circle cx="400" cy="0" r="100" fill="#222" opacity="0.098"></circle><circle cx="400" cy="600" r="100" fill="#222" opacity="0.098"></circle><circle cx="500" cy="0" r="100" fill="#ddd" opacity="0.14133333333333334"></circle><circle cx="500" cy="600" r="100" fill="#ddd" opacity="0.14133333333333334"></circle><circle cx="0" cy="100" r="100" fill="#222" opacity="0.13266666666666665"></circle><circle cx="600" cy="100" r="100" fill="#222" opacity="0.13266666666666665"></circle><circle cx="100" cy="100" r="100" fill="#222" opacity="0.11533333333333334"></circle><circle cx="200" cy="100" r="100" fill="#222" opacity="0.11533333333333334"></circle><circle cx="300" cy="100" r="100" fill="#222" opacity="0.13266666666666665"></circle><circle cx="400" cy="100" r="100" fill="#222" opacity="0.15"></circle><circle cx="500" cy="100" r="100" fill="#222" opacity="0.06333333333333334"></circle><circle cx="0" cy="200" r="100" fill="#222" opacity="0.15"></circle><circle cx="600" cy="200" r="100" fill="#222" opacity="0.15"></circle><circle cx="100" cy="200" r="100" fill="#ddd" opacity="0.07200000000000001"></circle><circle cx="200" cy="200" r="100" fill="#ddd" opacity="0.02"></circle><circle cx="300" cy="200" r="100" fill="#222" opacity="0.028666666666666667"></circle><circle cx="400" cy="200" r="100" fill="#222" opacity="0.08066666666666666"></circle><circle cx="500" cy="200" r="100" fill="#222" opacity="0.08066666666666666"></circle><circle cx="0" cy="300" r="100" fill="#ddd" opacity="0.07200000000000001"></circle><circle cx="600" cy="300" r="100" fill="#ddd" opacity="0.07200000000000001"></circle><circle cx="100" cy="300" r="100" fill="#222" opacity="0.098"></circle><circle cx="200" cy="300" r="100" fill="#222" opacity="0.028666666666666667"></circle><circle cx="300" cy="300" r="100" fill="#222" opacity="0.098"></circle><circle cx="400" cy="300" r="100" fill="#222" opacity="0.06333333333333334"></circle><circle cx="500" cy="300" r="100" fill="#222" opacity="0.046"></circle><circle cx="0" cy="400" r="100" fill="#222" opacity="0.028666666666666667"></circle><circle cx="600" cy="400" r="100" fill="#222" opacity="0.028666666666666667"></circle><circle cx="100" cy="400" r="100" fill="#222" opacity="0.11533333333333334"></circle><circle cx="200" cy="400" r="100" fill="#ddd" opacity="0.10666666666666667"></circle><circle cx="300" cy="400" r="100" fill="#222" opacity="0.15"></circle><circle cx="400" cy="400" r="100" fill="#ddd" opacity="0.07200000000000001"></circle><circle cx="500" cy="400" r="100" fill="#222" opacity="0.046"></circle><circle cx="0" cy="500" r="100" fill="#ddd" opacity="0.12400000000000001"></circle><circle cx="600" cy="500" r="100" fill="#ddd" opacity="0.12400000000000001"></circle><circle cx="100" cy="500" r="100" fill="#ddd" opacity="0.03733333333333333"></circle><circle cx="200" cy="500" r="100" fill="#ddd" opacity="0.14133333333333334"></circle><circle cx="300" cy="500" r="100" fill="#222" opacity="0.08066666666666666"></circle><circle cx="400" cy="500" r="100" fill="#ddd" opacity="0.08933333333333333"></circle><circle cx="500" cy="500" r="100" fill="#222" opacity="0.046"></circle></svg>