<svg xmlns="http://www.w3.org/2000/svg" width="648" height="648"><rect x="0" y="0" width="100%" height="100%" fill="rgb(61,146,114)"></rect><rect x="6" y="6" width="84" height="84" fill="none" stroke="#222" opacity="0.15" stroke-width="12px"></rect><rect x="30" y="30" width="36" height="36" fill="none" stroke="#ddd" opacity="0.08933333333333333" stroke-width="12px"></rect><rect x="114" y="6" width="84" height="84" fill="none" stroke="#222" opacity="0.046" stroke-width="12px"></rect><rect x="138" y="30" width="36" height="36" fill="none" stroke="#222" opacity="0.11533333333333334" stroke-width="12px"></rect><rect x="222" y="6" width="84" height="84" fill="none" stroke="#ddd" opacity="0.03733333333333333" stroke-width="12px"></rect><rect x="246" y="30" width="36" height="36" fill="none" stroke="#ddd" opacity="0.07200000000000001" stroke-width="12px"></rect><rect x="330" y="6" width="84" height="84" fill="none" stroke="#ddd" opacity="0.05466666666666667" stroke-width="12px"></rect><rect x="354" y="30" width="36" height="36" fill="none" stroke="#ddd" opacity="0.14133333333333334" stroke-width="12px"></rect><rect x="438" y="6" width="84" height="84" fill="none" stroke="#222" opacity="0.08066666666666666" stroke-width="12px"></rect><rect x="462" y="30" width="36" height="36" fill="none" stroke="#ddd" opacity="0.05466666666666667" stroke-width="12px"></rect><rect x="546" y="6" width="84" height="84" fill="none" stroke="#222" opacity="0.098" stroke-width="12px"></rect><rect x="570" y="30" width="36" height="36" fill="none" stroke="#ddd" opacity="0.03733333333333333" stroke-width="12px"></rect><rect x="6" y="114" width="84" height="84" fill="none" stroke="#ddd" opacity="0.12400000000000001" stroke-width="12px"></rect><rect x="30" y="138" width="36" height="36" fill="none" stroke="#222" opacity="0.098" stroke-width="12px"></rect><rect x="114" y="114" width="84" height="84" fill="none" stroke="#ddd" opacity="0.12400000000000001" stroke-width="12px"></rect><rect x="138" y="138" width="36" height="36" fill="none" stroke="#222" opacity="0.046" stroke-width="12px"></rect><rect x="222" y="114" width="84" height="84" fill="none" stroke="#222" opacity="0.028666666666666667" stroke-width="12px"></rect><rect x="246" y="138" width="36" height="36" fill="none" stroke="#ddd" opacity="0.05466666666666667" stroke-width="12px"></rect><rect x="330" y="114" width="84" height="84" fill="none" stroke="#ddd" opacity="0.12400000000000001" stroke-width="12px"></rect><rect x="354" y="138" width="36" height="36" fill="none" stroke="#ddd" opacity="0.08933333333333333" stroke-width="12px"></rect><rect x="438" y="114" width="84" height="84" fill="none" stroke="#222" opacity="0.08066666666666666" stroke-width="12px"></rect><rect x="462" y="138" width="36" height="36" fill="none" stroke="#ddd" opacity="0.12400000000000001" stroke-width="12px"></rect><rect x="546" y="114" width="84" height="84" fill="none" stroke="#ddd" opacity="0.14133333333333334" stroke-width="12px"></rect><rect x="570" y="138" width="36" height="36" fill="none" stroke="#222" opacity="0.11533333333333334" stroke-width="12px"></rect><rect x="6" y="222" width="84" height="84" fill="none" stroke="#222" opacity="0.08066666666666666" stroke-width="12px"></rect><rect x="30" y="246" width="36" height="36" fill="none" stroke="#ddd" opacity="0.02" stroke-width="12px"></rect><rect x="114" y="222" width="84" height="84" fill="none" stroke="#222" opacity="0.11533333333333334" stroke-width="12px"></rect><rect x="138" y="246" width="36" height="36" fill="none" stroke="#ddd" opacity="0.07200000000000001" stroke-width="12px"></rect><rect x="222" y="222" width="84" height="84" fill="none" stroke="#222" opacity="0.098" stroke-width="12px"></rect><rect x="246" y="246" width="36" height="36" fill="none" stroke="#222" opacity="0.098" stroke-width="12px"></rect><rect x="330" y="222" width="84" height="84" fill="none" stroke="#ddd" opacity="0.02" stroke-width="12px"></rect><rect x="354" y="246" width="36" height="36" fill="none" stroke="#222" opacity="0.11533333333333334" stroke-width="12px"></rect><rect x="438" y="222" width="84" height="84" fill="none" stroke="#ddd" opacity="0.08933333333333333" stroke-width="12px"></rect><rect x="462" y="246" width="36" height="36" fill="none" stroke="#222" opacity="0.098" stroke-width="12px"></rect><rect x="546" y="222" width="84" height="84" fill="none" stroke="#222" opacity="0.028666666666666667" stroke-width="12px"></rect><rect x="570" y="246" width="36" height="36" fill="none" stroke="#ddd" opacity="0.12400000000000001" stroke-width="12px"></rect><rect x="6" y="330" width="84" height="84" fill="none" stroke="#222" opacity="0.028666666666666667" stroke-width="12px"></rect><rect x="30" y="354" width="36" height="36" fill="none" stroke="#ddd" opacity="0.10666666666666667" stroke-width="12px"></rect><rect x="114" y="330" width="84" height="84" fill="none" stroke="#222" opacity="0.06333333333333334" stroke-width="12px"></rect><rect x="138" y="354" width="36" height="36" fill="none" stroke="#222" opacity="0.13266666666666665" stroke-width="12px"></rect><rect x="222" y="330" width="84" height="84" fill="none" stroke="#222" opacity="0.13266666666666665" stroke-width="12px"></rect><rect x="246" y="354" width="36" height="36" fill="none" stroke="#222" opacity="0.06333333333333334" stroke-width="12px"></rect><rect x="330" y="330" width="84" height="84" fill="none" stroke="#ddd" opacity="0.10666666666666667" stroke-width="12px"></rect><rect x="354" y="354" width="36" height="36" fill="none" stroke="#222" opacity="0.028666666666666667" stroke-width="12px"></rect><rect x="438" y="330" width="84" height="84" fill="none" stroke="#ddd" opacity="0.12400000000000001" stroke-width="12px"></rect><rect x="462" y="354" width="36" height="36" fill="none" stroke="#222" opacity="0.028666666666666667" stroke-width="12px"></rect><rect x="546" y="330" width="84" height="84" fill="none" stroke="#222" opacity="0.098" stroke-width="12px"></rect><rect x="570" y="354" width="36" height="36" fill="none" stroke="#ddd" opacity="0.08933333333333333" stroke-width="12px"></rect><rect x="6" y="438" width="84" height="84" fill="none" stroke="#222" opacity="0.11533333333333334" stroke-width="12px"></rect><rect x="30" y="462" width="36" height="36" fill="none" stroke="#ddd" opacity="0.02" stroke-width="12px"></rect><rect x="114" y="438" width="84" height="84" fill="none" stroke="#222" opacity="0.098" stroke-width="12px"></rect><rect x="138" y="462" width="36" height="36" fill="none" stroke="#222" opacity="0.098" stroke-width="12px"></rect><rect x="222" y="438" width="84" height="84" fill="none" stroke="#ddd" opacity="0.07200000000000001" stroke-width="12px"></rect><rect x="246" y="462" width="36" height="36" fill="none" stroke="#222" opacity="0.11533333333333334" stroke-width="12px"></rect><rect x="330" y="438" width="84" height="84" fill="none" stroke="#ddd" opacity="0.02" stroke-width="12px"></rect><rect x="354" y="462" width="36" height="36" fill="none" stroke="#222" opacity="0.08066666666666666" stroke-width="12px"></rect><rect x="438" y="438" width="84" height="84" fill="none" stroke="#222" opacity="0.11533333333333334" stroke-width="12px"></rect><rect x="462" y="462" width="36" height="36" fill="none" stroke="#ddd" opacity="0.14133333333333334" stroke-width="12px"></rect><rect x="546" y="438" width="84" height="84" fill="none" stroke="#ddd" opacity="0.12400000000000001" stroke-width="12px"></rect><rect x="570" y="462" width="36" height="36" fill="none" stroke="#222" opacity="0.08066666666666666" stroke-width="12px"></rect><rect x="6" y="546" width="84" height="84" fill="none" stroke="#ddd" opacity="0.08933333333333333" stroke-width="12px"></rect><rect x="30" y="570" width="36" height="36" fill="none" stroke="#ddd" opacity="0.12400000000000001" stroke-width="12px"></rect><rect x="114" y="546" width="84" height="84" fill="none" stroke="#ddd" opacity="0.05466666666666667" stroke-width="12px"></rect><rect x="138" y="570" width="36" height="36" fill="none" stroke="#222" opacity="0.028666666666666667" stroke-width="12px"></rect><rect x="222" y="546" width="84" height="84" fill="none" stroke="#222" opacity="0.046" stroke-width="12px"></rect><rect x="246" y="570" width="36" height="36" fill="none" stroke="#ddd" opacity="0.12400000000000001" stroke-width="12px"></rect><rect x="330" y="546" width="84" height="84" fill="none" stroke="#222" opacity="0.098" stroke-width="12px"></rect><rect x="354" y="570" width="36" height="36" fill="none" stroke="#ddd" opacity="0.12400000000000001" stroke-width="12px"></rect><rect x="438" y="546" width="84" height="84" fill="none" stroke="#ddd" opacity="0.03733333333333333" stroke-width="12px"></rect><rect x="462" y="570" width="36" height="36" fill="none" stroke="#222" opacity="0.098" stroke-width="12px"></rect><rect x="546" y="546" width="84" height="84" fill="none" stroke="#ddd" opacity="0.05466666666666667" stroke-width="12px"></rect><rect x="570" y="570" width="36" height="36" fill="none" stroke="#222" opacity="0.08066666666666666" stroke-width="12px"></rect></svg>