<svg xmlns="http://www.w3.org/2000/svg" width="240" height="1080"><rect x="0" y="0" width="100%" height="100%" fill="rgb(73,121,134)"></rect><path d="M0 53 C 42 0, 78 0, 120 53 S 198 106, 240 53 S 318 0, 360, 53" fill="none" stroke="#222" opacity="0.08066666666666666" stroke-width="30px" transform="translate(-60,-79.5)"></path><path d="M0 53 C 42 0, 78 0, 120 53 S 198 106, 240 53 S 318 0, 360, 53" fill="none" stroke="#222" opacity="0.08066666666666666" stroke-width="30px" transform="translate(-60,1000.5)"></path><path d="M0 53 C 42 0, 78 0, 120 53 S 198 106, 240 53 S 318 0, 360, 53" fill="none" stroke="#222" opacity="0.06333333333333334" stroke-width="30px" transform="translate(-60,-49.5)"></path><path d="M0 53 C 42 0, 78 0, 120 53 S 198 106, 240 53 S 318 0, 360, 53" fill="none" stroke="#222" opacity="0.06333333333333334" stroke-width="30px" transform="translate(-60,1030.5)"></path><path d="M0 53 C 42 0, 78 0, 120 53 S 198 106, 240 53 S 318 0, 360, 53" fill="none" stroke="#222" opacity="0.15" stroke-width="30px" transform="translate(-60,-19.5)"></path><path d="M0 53 C 42 0, 78 0, 120 53 S 198 106, 240 53 S 318 0, 360, 53" fill="none" stroke="#222" opacity="0.15" stroke-width="30px" transform="translate(-60,1060.5)"></path><path d="M0 53 C 42 0, 78 0, 120 53 S 198 106, 240 53 S 318 0, 360, 53" fill="none" stroke="#222" opacity="0.098" stroke-width="30px" transform="translate(-60,10.5)"></path><path d="M0 53 C 42 0, 78 0, 120 53 S 198 106, 240 53 S 318 0, 360, 53" fill="none" stroke="#222" opacity="0.098" stroke-width="30px" transform="translate(-60,1090.5)"></path><path d="M0 53 C 42 0, 78 0, 120 53 S 198 106, 240 53 S 318 0, 360, 53" fill="none" stroke="#222" opacity="0.11533333333333334" stroke-width="30px" transform="translate(-60,40.5)"></path><path d="M0 53 C 42 0, 78 0, 120 53 S 198 106, 240 53 S 318 0, 360, 53" fill="none" stroke="#222" opacity="0.11533333333333334" stroke-width="30px" transform="translate(-60,1120.5)"></path><path d="M0 53 C 42 0, 78 0, 120 53 S 198 106, 240 53 S 318 0, 360, 53" fill="none" stroke="#222" opacity="0.15" stroke-width="30px" transform="translate(-60,70.5)"></path><path d="M0 53 C 42 0, 78 0, 120 53 S 198 106, 240 53 S 318 0, 360, 53" fill="none" stroke="#222" opacity="0.15" stroke-width="30px" transform="translate(-60,1150.5)"></path><path d="M0 53 C 42 0, 78 0, 120 53 S 198 106, 240 53 S 318 0, 360, 53" fill="none" stroke="#222" opacity="0.15" stroke-width="30px" transform="translate(-60,100.5)"></path><path d="M0 53 C 42 0, 78 0, 120 53 S 198 106, 240 53 S 318 0, 360, 53" fill="none" stroke="#222" opacity="0.15" stroke-width="30px" transform="translate(-60,1180.5)"></path><path d="M0 53 C 42 0, 78 0, 120 53 S 198 106, 240 53 S 318 0, 360, 53" fill="none" stroke="#ddd" opacity="0.05466666666666667" stroke-width="30px" transform="translate(-60,130.5)"></path><path d="M0 53 C 42 0, 78 0, 120 53 S 198 106, 240 53 S 318 0, 360, 53" fill="none" stroke="#ddd" opacity="0.05466666666666667" stroke-width="30px" transform="translate(-60,1210.5)"></path><path d="M0 53 C 42 0, 78 0, 120 53 S 198 106, 240 53 S 318 0, 360, 53" fill="none" stroke="#222" opacity="0.08066666666666666" stroke-width="30px" transform="translate(-60,160.5)"></path><path d="M0 53 C 42 0, 78 0, 120 53 S 198 106, 240 53 S 318 0, 360, 53" fill="none" stroke="#222" opacity="0.08066666666666666" stroke-width="30px" transform="translate(-60,1240.5)"></path><path d="M0 53 C 42 0, 78 0, 120 53 S 198 106, 240 53 S 318 0, 360, 53" fill="none" stroke="#ddd" opacity="0.12400000000000001" stroke-width="30px" transform="translate(-60,190.5)"></path><path d="M0 53 C 42 0, 78 0, 120 53 S 198 106, 240 53 S 318 0, 360, 53" fill="none" stroke="#ddd" opacity="0.12400000000000001" stroke-width="30px" transform="translate(-60,1270.5)"></path><path d="M0 53 C 42 0, 78 0, 120 53 S 198 106, 240 53 S 318 0, 360, 53" fill="none" stroke="#ddd" opacity="0.12400000000000001" stroke-width="30px" transform="translate(-60,220.5)"></path><path d="M0 53 C 42 0, 78 0, 120 53 S 198 106, 240 53 S 318 0, 360, 53" fill="none" stroke="#ddd" opacity="0.12400000000000001" stroke-width="30px" transform="translate(-60,1300.5)"></path><path d="M0 53 C 42 0, 78 0, 120 53 S 198 106, 240 53 S 318 0, 360, 53" fill="none" stroke="#ddd" opacity="0.03733333333333333" stroke-width="30px" transform="translate(-60,250.5)"></path><path d="M0 53 C 42 0, 78 0, 120 53 S 198 106, 240 53 S 318 0, 360, 53" fill="none" stroke="#ddd" opacity="0.03733333333333333" stroke-width="30px" transform="translate(-60,1330.5)"></path><path d="M0 53 C 42 0, 78 0, 120 53 S 198 106, 240 53 S 318 0, 360, 53" fill="none" stroke="#ddd" opacity="0.03733333333333333" stroke-width="30px" transform="translate(-60,280.5)"></path><path d="M0 53 C 42 0, 78 0, 120 53 S 198 106, 240 53 S 318 0, 360, 53" fill="none" stroke="#ddd" opacity="0.03733333333333333" stroke-width="30px" transform="translate(-60,1360.5)"></path><path d="M0 53 C 42 0, 78 0, 120 53 S 198 106, 240 53 S 318 0, 360, 53" fill="none" stroke="#222" opacity="0.13266666666666665" stroke-width="30px" transform="translate(-60,310.5)"></path><path d="M0 53 C 42 0, 78 0, 120 53 S 198 106, 240 53 S 318 0, 360, 53" fill="none" stroke="#222" opacity="0.13266666666666665" stroke-width="30px" transform="translate(-60,1390.5)"></path><path d="M0 53 C 42 0, 78 0, 120 53 S 198 106, 240 53 S 318 0, 360, 53" fill="none" stroke="#222" opacity="0.08066666666666666" stroke-width="30px" transform="translate(-60,340.5)"></path><path d="M0 53 C 42 0, 78 0, 120 53 S 198 106, 240 53 S 318 0, 360, 53" fill="none" stroke="#222" opacity="0.08066666666666666" stroke-width="30px" transform="translate(-60,1420.5)"></path><path d="M0 53 C 42 0, 78 0, 120 53 S 198 106, 240 53 S 318 0, 360, 53" fill="none" stroke="#222" opacity="0.08066666666666666" stroke-width="30px" transform="translate(-60,370.5)"></path><path d="M0 53 C 42 0, 78 0, 120 53 S 198 106, 240 53 S 318 0, 360, 53" fill="none" stroke="#222" opacity="0.08066666666666666" stroke-width="30px" transform="translate(-60,1450.5)"></path><path d="M0 53 C 42 0, 78 0, 120 53 S 198 106, 240 53 S 318 0, 360, 53" fill="none" stroke="#222" opacity="0.098" stroke-width="30px" transform="translate(-60,400.5)"></path><path d="M0 53 C 42 0, 78 0, 120 53 S 198 106, 240 53 S 318 0, 360, 53" fill="none" stroke="#222" opacity="0.098" stroke-width="30px" transform="translate(-60,1480.5)"></path><path d="M0 53 C 42 0, 78 0, 120 53 S 198 106, 240 53 S 318 0, 360, 53" fill="none" stroke="#222" opacity="0.13266666666666665" stroke-width="30px" transform="translate(-60,430.5)"></path><path d="M0 53 C 42 0, 78 0, 120 53 S 198 106, 240 53 S 318 0, 360, 53" fill="none" stroke="#222" opacity="0.13266666666666665" stroke-width="30px" transform="translate(-60,1510.5)"></path><path d="M0 53 C 42 0, 78 0, 120 53 S 198 106, 240 53 S 318 0, 360, 53" fill="none" stroke="#222" opacity="0.098" stroke-width="30px" transform="translate(-60,460.5)"></path><path d="M0 53 C 42 0, 78 0, 120 53 S 198 106, 240 53 S 318 0, 360, 53" fill="none" stroke="#222" opacity="0.098" stroke-width="30px" transform="translate(-60,1540.5)"></path><path d="M0 53 C 42 0, 78 0, 120 53 S 198 106, 240 53 S 318 0, 360, 53" fill="none" stroke="#ddd" opacity="0.03733333333333333" stroke-width="30px" transform="translate(-60,490.5)"></path><path d="M0 53 C 42 0, 78 0, 120 53 S 198 106, 240 53 S 318 0, 360, 53" fill="none" stroke="#ddd" opacity="0.03733333333333333" stroke-width="30px" transform="translate(-60,1570.5)"></path><path d="M0 53 C 42 0, 78 0, 120 53 S 198 106, 240 53 S 318 0, 360, 53" fill="none" stroke="#ddd" opacity="0.05466666666666667" stroke-width="30px" transform="translate(-60,520.5)"></path><path d="M0 53 C 42 0, 78 0, 120 53 S 198 106, 240 53 S 318 0, 360, 53" fill="none" stroke="#ddd" opacity="0.05466666666666667" stroke-width="30px" transform="translate(-60,1600.5)"></path><path d="M0 53 C 42 0, 78 0, 120 53 S 198 106, 240 53 S 318 0, 360, 53" fill="none" stroke="#ddd" opacity="0.12400000000000001" stroke-width="30px" transform="translate(-60,550.5)"></path><path d="M0 53 C 42 0, 78 0, 120 53 S 198 106, 240 53 S 318 0, 360, 53" fill="none" stroke="#ddd" opacity="0.12400000000000001" stroke-width="30px" transform="translate(-60,1630.5)"></path><path d="M0 53 C 42 0, 78 0, 120 53 S 198 106, 240 53 S 318 0, 360, 53" fill="none" stroke="#ddd" opacity="0.05466666666666667" stroke-width="30px" transform="translate(-60,580.5)"></path><path d="M0 53 C 42 0, 78 0, 120 53 S 198 106, 240 53 S 318 0, 360, 53" fill="none" stroke="#ddd" opacity="0.05466666666666667" stroke-width="30px" transform="translate(-60,1660.5)"></path><path d="M0 53 C 42 0, 78 0, 120 53 S 198 106, 240 53 S 318 0, 360, 53" fill="none" stroke="#222" opacity="0.15" stroke-width="30px" transform="translate(-60,610.5)"></path><path d="M0 53 C 42 0, 78 0, 120 53 S 198 106, 240 53 S 318 0, 360, 53" fill="none" stroke="#222" opacity="0.15" stroke-width="30px" transform="translate(-60,1690.5)"></path><path d="M0 53 C 42 0, 78 0, 120 53 S 198 106, 240 53 S 318 0, 360, 53" fill="none" stroke="#222" opacity="0.08066666666666666" stroke-width="30px" transform="translate(-60,640.5)"></path><path d="M0 53 C 42 0, 78 0, 120 53 S 198 106, 240 53 S 318 0, 360, 53" fill="none" stroke="#222" opacity="0.08066666666666666" stroke-width="30px" transform="translate(-60,1720.5)"></path><path d="M0 53 C 42 0, 78 0, 120 53 S 198 106, 240 53 S 318 0, 360, 53" fill="none" stroke="#ddd" opacity="0.07200000000000001" stroke-width="30px" transform="translate(-60,670.5)"></path><path d="M0 53 C 42 0, 78 0, 120 53 S 198 106, 240 53 S 318 0, 360, 53" fill="none" stroke="#ddd" opacity="0.07200000000000001" stroke-width="30px" transform="translate(-60,1750.5)"></path><path d="M0 53 C 42 0, 78 0, 120 53 S 198 106, 240 53 S 318 0, 360, 53" fill="none" stroke="#ddd" opacity="0.08933333333333333" stroke-width="30px" transform="translate(-60,700.5)"></path><path d="M0 53 C 42 0, 78 0, 120 53 S 198 106, 240 53 S 318 0, 360, 53" fill="none" stroke="#ddd" opacity="0.08933333333333333" stroke-width="30px" transform="translate(-60,1780.5)"></path><path d="M0 53 C 42 0, 78 0, 120 53 S 198 106, 240 53 S 318 0, 360, 53" fill="none" stroke="#222" opacity="0.028666666666666667" stroke-width="30px" transform="translate(-60,730.5)"></path><path d="M0 53 C 42 0, 78 0, 120 53 S 198 106, 240 53 S 318 0, 360, 53" fill="none" stroke="#222" opacity="0.028666666666666667" stroke-width="30px" transform="translate(-60,1810.5)"></path><path d="M0 53 C 42 0, 78 0, 120 53 S 198 106, 240 53 S 318 0, 360, 53" fill="none" stroke="#222" opacity="0.13266666666666665" stroke-width="30px" transform="translate(-60,760.5)"></path><path d="M0 53 C 42 0, 78 0, 120 53 S 198 106, 240 53 S 318 0, 360, 53" fill="none" stroke="#222" opacity="0.13266666666666665" stroke-width="30px" transform="translate(-60,1840.5)"></path><path d="M0 53 C 42 0, 78 0, 120 53 S 198 106, 240 53 S 318 0, 360, 53" fill="none" stroke="#ddd" opacity="0.12400000000000001" stroke-width="30px" transform="translate(-60,790.5)"></path><path d="M0 53 C 42 0, 78 0, 120 53 S 198 106, 240 53 S 318 0, 360, 53" fill="none" stroke="#ddd" opacity="0.12400000000000001" stroke-width="30px" transform="translate(-60,1870.5)"></path><path d="M0 53 C 42 0, 78 0, 120 53 S 198 106, 240 53 S 318 0, 360, 53" fill="none" stroke="#222" opacity="0.028666666666666667" stroke-width="30px" transform="translate(-60,820.5)"></path><path d="M0 53 C 42 0, 78 0, 120 53 S 198 106, 240 53 S 318 0, 360, 53" fill="none" stroke="#222" opacity="0.028666666666666667" stroke-width="30px" transform="translate(-60,1900.5)"></path><path d="M0 53 C 42 0, 78 0, 120 53 S 198 106, 240 53 S 318 0, 360, 53" fill="none" stroke="#ddd" opacity="0.02" stroke-width="30px" transform="translate(-60,850.5)"></path><path d="M0 53 C 42 0, 78 0, 120 53 S 198 106, 240 53 S 318 0, 360, 53" fill="none" stroke="#ddd" opacity="0.02" stroke-width="30px" transform="translate(-60,1930.5)"></path><path d="M0 53 C 42 0, 78 0, 120 53 S 198 106, 240 53 S 318 0, 360, 53" fill="none" stroke="#ddd" opacity="0.14133333333333334" stroke-width="30px" transform="translate(-60,880.5)"></path><path d="M0 53 C 42 0, 78 0, 120 53 S 198 106, 240 53 S 318 0, 360, 53" fill="none" stroke="#ddd" opacity="0.14133333333333334" stroke-width="30px" transform="translate(-60,1960.5)"></path><path d="M0 53 C 42 0, 78 0, 120 53 S 198 106, 240 53 S 318 0, 360, 53" fill="none" stroke="#ddd" opacity="0.03733333333333333" stroke-width="30px" transform="translate(-60,910.5)"></path><path d="M0 53 C 42 0, 78 0, 120 53 S 198 106, 240 53 S 318 0, 360, 53" fill="none" stroke="#ddd" opacity="0.03733333333333333" stroke-width="30px" transform="translate(-60,1990.5)"></path><path d="M0 53 C 42 0, 78 0, 120 53 S 198 106, 240 53 S 318 0, 360, 53" fill="none" stroke="#222" opacity="0.08066666666666666" stroke-width="30px" transform="translate(-60,940.5)"></path><path d="M0 53 C 42 0, 78 0, 120 53 S 198 106, 240 53 S 318 0, 360, 53" fill="none" stroke="#222" opacity="0.08066666666666666" stroke-width="30px" transform="translate(-60,2020.5)"></path><path d="M0 53 C 42 0, 78 0, 120 53 S 198 106, 240 53 S 318 0, 360, 53" fill="none" stroke="#222" opacity="0.11533333333333334" stroke-width="30px" transform="translate(-60,970.5)"></path><path d="M0 53 C 42 0, 78 0, 120 53 S 198 106, 240 53 S 318 0, 360, 53" fill="none" stroke="#222" opacity="0.11533333333333334" stroke-width="30px" transform="translate(-60,2050.5)"></path></svg>