<svg xmlns="http://www.w3.org/2000/svg" width="284" height="150"><rect x="0" y="0" width="100%" height="100%" fill="rgb(58,149,143)"></rect><polyline points="23.666666666666668,0,47.333333333333336,25,23.666666666666668,50,0,25" fill="#ddd" fill-opacity="0.14133333333333334" stroke="#000" stroke-opacity="0.02" transform="translate(-23.666666666666668,-25)"></polyline><polyline points="23.666666666666668,0,47.333333333333336,25,23.666666666666668,50,0,25" fill="#ddd" fill-opacity="0.14133333333333334" stroke="#000" stroke-opacity="0.02" transform="translate(260.3333333333333,-25)"></polyline><polyline points="23.666666666666668,0,47.333333333333336,25,23.666666666666668,50,0,25" fill="#ddd" fill-opacity="0.14133333333333334" stroke="#000" stroke-opacity="0.02" transform="translate(-23.666666666666668,125)"></polyline><polyline points="23.666666666666668,0,47.333333333333336,25,23.666666666666668,50,0,25" fill="#ddd" fill-opacity="0.14133333333333334" stroke="#000" stroke-opacity="0.02" transform="translate(260.3333333333333,125)"></polyline><polyline points="23.666666666666668,0,47.333333333333336,25,23.666666666666668,50,0,25" fill="#222" fill-opacity="0.15" stroke="#000" stroke-opacity="0.02" transform="translate(23.666666666666668,-25)"></polyline><polyline points="23.666666666666668,0,47.333333333333336,25,23.666666666666668,50,0,25" fill="#222" fill-opacity="0.15" stroke="#000" stroke-opacity="0.02" transform="translate(23.666666666666668,125)"></polyline><polyline points="23.666666666666668,0,47.333333333333336,25,23.666666666666668,50,0,25" fill="#222" fill-opacity="0.06333333333333334" stroke="#000" stroke-opacity="0.02" transform="translate(71,-25)"></polyline><polyline points="23.666666666666668,0,47.333333333333336,25,23.666666666666668,50,0,25" fill="#222" fill-opacity="0.06333333333333334" stroke="#000" stroke-opacity="0.02" transform="translate(71,125)"></polyline><polyline points="23.666666666666668,0,47.333333333333336,25,23.666666666666668,50,0,25" fill="#ddd" fill-opacity="0.10666666666666667" stroke="#000" stroke-opacity="0.02" transform="translate(118.33333333333333,-25)"></polyline><polyline points="23.666666666666668,0,47.333333333333336,25,23.666666666666668,50,0,25" fill="#ddd" fill-opacity="0.10666666666666667" stroke="#000" stroke-opacity="0.02" transform="translate(118.33333333333333,125)"></polyline><polyline points="23.666666666666668,0,47.333333333333336,25,23.666666666666668,50,0,25" fill="#ddd" fill-opacity="0.12400000000000001" stroke="#000" stroke-opacity="0.02" transform="translate(165.66666666666669,-25)"></polyline><polyline points="23.666666666666668,0,47.333333333333336,25,23.666666666666668,50,0,25" fill="#ddd" fill-opacity="0.12400000000000001" stroke="#000" stroke-opacity="0.02" transform="translate(165.66666666666669,125)"></polyline><polyline points="23.666666666666668,0,47.333333333333336,25,23.666666666666668,50,0,25" fill="#222" fill-opacity="0.046" stroke="#000" stroke-opacity="0.02" transform="translate(213.00000000000003,-25)"></polyline><polyline points="23.666666666666668,0,47.333333333333336,25,23.666666666666668,50,0,25" fill="#222" fill-opacity="0.046" stroke="#000" stroke-opacity="0.02" transform="translate(213.00000000000003,125)"></polyline><polyline points="23.666666666666668,0,47.333333333333336,25,23.666666666666668,50,0,25" fill="#ddd" fill-opacity="0.07200000000000001" stroke="#000" stroke-opacity="0.02" transform="translate(0,0)"></polyline><polyline points="23.666666666666668,0,47.333333333333336,25,23.666666666666668,50,0,25" fill="#ddd" fill-opacity="0.07200000000000001" stroke="#000" stroke-opacity="0.02" transform="translate(284,0)"></polyline><polyline points="23.666666666666668,0,47.333333333333336,25,23.666666666666668,50,0,25" fill="#222" fill-opacity="0.11533333333333334" stroke="#000" stroke-opacity="0.02" transform="translate(47.333333333333336,0)"></polyline><polyline points="23.666666666666668,0,47.333333333333336,25,23.666666666666668,50,0,25" fill="#222" fill-opacity="0.028666666666666667" stroke="#000" stroke-opacity="0.02" transform="translate(94.66666666666667,0)"></polyline><polyline points="23.666666666666668,0,47.333333333333336,25,23.666666666666668,50,0,25" fill="#222" fill-opacity="0.08066666666666666" stroke="#000" stroke-opacity="0.02" transform="translate(142,0)"></polyline><polyline points="23.666666666666668,0,47.333333333333336,25,23.666666666666668,50,0,25" fill="#ddd" fill-opacity="0.08933333333333333" stroke="#000" stroke-opacity="0.02" transform="translate(189.33333333333334,0)"></polyline><polyline points="23.666666666666668,0,47.333333333333336,25,23.666666666666668,50,0,25" fill="#ddd" fill-opacity="0.05466666666666667" stroke="#000" stroke-opacity="0.02" transform="translate(236.66666666666669,0)"></polyline><polyline points="23.666666666666668,0,47.333333333333336,25,23.666666666666668,50,0,25" fill="#222" fill-opacity="0.098" stroke="#000" stroke-opacity="0.02" transform="translate(-23.666666666666668,25)"></polyline><polyline points="23.666666666666668,0,47.333333333333336,25,23.666666666666668,50,0,25" fill="#222" fill-opacity="0.098" stroke="#000" stroke-opacity="0.02" transform="translate(260.3333333333333,25)"></polyline><polyline points="23.666666666666668,0,47.333333333333336,25,23.666666666666668,50,0,25" fill="#222" fill-opacity="0.098" stroke="#000" stroke-opacity="0.02" transform="translate(23.666666666666668,25)"></polyline><polyline points="23.666666666666668,0,47.333333333333336,25,23.666666666666668,50,0,25" fill="#ddd" fill-opacity="0.08933333333333333" stroke="#000" stroke-opacity="0.02" transform="translate(71,25)"></polyline><polyline points="23.666666666666668,0,47.333333333333336,25,23.666666666666668,50,0,25" fill="#222" fill-opacity="0.046" stroke="#000" stroke-opacity="0.02" transform="translate(118.33333333333333,25)"></polyline><polyline points="23.666666666666668,0,47.333333333333336,25,23.666666666666668,50,0,25" fill="#222" fill-opacity="0.06333333333333334" stroke="#000" stroke-opacity="0.02" transform="translate(165.66666666666669,25)"></polyline><polyline points="23.666666666666668,0,47.333333333333336,25,23.666666666666668,50,0,25" fill="#ddd" fill-opacity="0.03733333333333333" stroke="#000" stroke-opacity="0.02" transform="translate(213.00000000000003,25)"></polyline><polyline points="23.666666666666668,0,47.333333333333336,25,23.666666666666668,50,0,25" fill="#222" fill-opacity="0.046" stroke="#000" stroke-opacity="0.02" transform="translate(0,50)"></polyline><polyline points="23.666666666666668,0,47.333333333333336,25,23.666666666666668,50,0,25" fill="#222" fill-opacity="0.046" stroke="#000" stroke-opacity="0.02" transform="translate(284,50)"></polyline><polyline points="23.666666666666668,0,47.333333333333336,25,23.666666666666668,50,0,25" fill="#222" fill-opacity="0.028666666666666667" stroke="#000" stroke-opacity="0.02" transform="translate(47.333333333333336,50)"></polyline><polyline points="23.666666666666668,0,47.333333333333336,25,23.666666666666668,50,0,25" fill="#222" fill-opacity="0.11533333333333334" stroke="#000" stroke-opacity="0.02" transform="translate(94.66666666666667,50)"></polyline><polyline points="23.666666666666668,0,47.333333333333336,25,23.666666666666668,50,0,25" fill="#ddd" fill-opacity="0.08933333333333333" stroke="#000" stroke-opacity="0.02" transform="translate(142,50)"></polyline><polyline points="23.666666666666668,0,47.333333333333336,25,23.666666666666668,50,0,25" fill="#ddd" fill-opacity="0.10666666666666667" stroke="#000" stroke-opacity="0.02" transform="translate(189.33333333333334,50)"></polyline><polyline points="23.666666666666668,0,47.333333333333336,25,23.666666666666668,50,0,25" fill="#ddd" fill-opacity="0.03733333333333333" stroke="#000" stroke-opacity="0.02" transform="translate(236.66666666666669,50)"></polyline><polyline points="23.666666666666668,0,47.333333333333336,25,23.666666666666668,50,0,25" fill="#ddd" fill-opacity="0.08933333333333333" stroke="#000" stroke-opacity="0.02" transform="translate(-23.666666666666668,75)"></polyline><polyline points="23.666666666666668,0,47.333333333333336,25,23.666666666666668,50,0,25" fill="#ddd" fill-opacity="0.08933333333333333" stroke="#000" stroke-opacity="0.02" transform="translate(260.3333333333333,75)"></polyline><polyline points="23.666666666666668,0,47.333333333333336,25,23.666666666666668,50,0,25" fill="#ddd" fill-opacity="0.07200000000000001" stroke="#000" stroke-opacity="0.02" transform="translate(23.666666666666668,75)"></polyline><polyline points="23.666666666666668,0,47.333333333333336,25,23.666666666666668,50,0,25" fill="#222" fill-opacity="0.046" stroke="#000" stroke-opacity="0.02" transform="translate(71,75)"></polyline><polyline points="23.666666666666668,0,47.333333333333336,25,23.666666666666668,50,0,25" fill="#222" fill-opacity="0.098" stroke="#000" stroke-opacity="0.02" transform="translate(118.33333333333333,75)"></polyline><polyline points="23.666666666666668,0,47.333333333333336,25,23.666666666666668,50,0,25" fill="#ddd" fill-opacity="0.08933333333333333" stroke="#000" stroke-opacity="0.02" transform="translate(165.66666666666669,75)"></polyline><polyline points="23.666666666666668,0,47.333333333333336,25,23.666666666666668,50,0,25" fill="#222" fill-opacity="0.11533333333333334" stroke="#000" stroke-opacity="0.02" transform="translate(213.00000000000003,75)"></polyline><polyline points="23.666666666666668,0,47.333333333333336,25,23.666666666666668,50,0,25" fill="#222" fill-opacity="0.11533333333333334" stroke="#000" stroke-opacity="0.02" transform="translate(0,100)"></polyline><polyline points="23.666666666666668,0,47.333333333333336,25,23.666666666666668,50,0,25" fill="#222" fill-opacity="0.11533333333333334" stroke="#000" stroke-opacity="0.02" transform="translate(284,100)"></polyline><polyline points="23.666666666666668,0,47.333333333333336,25,23.666666666666668,50,0,25" fill="#ddd" fill-opacity="0.03733333333333333" stroke="#000" stroke-opacity="0.02" transform="translate(47.333333333333336,100)"></polyline><polyline points="23.666666666666668,0,47.333333333333336,25,23.666666666666668,50,0,25" fill="#222" fill-opacity="0.08066666666666666" stroke="#000" stroke-opacity="0.02" transform="translate(94.66666666666667,100)"></polyline><polyline points="23.666666666666668,0,47.333333333333336,25,23.666666666666668,50,0,25" fill="#ddd" fill-opacity="0.02" stroke="#000" stroke-opacity="0.02" transform="translate(142,100)"></polyline><polyline points="23.666666666666668,0,47.333333333333336,25,23.666666666666668,50,0,25" fill="#ddd" fill-opacity="0.10666666666666667" stroke="#000" stroke-opacity="0.02" transform="translate(189.33333333333334,100)"></polyline><polyline points="23.666666666666668,0,47.333333333333336,25,23.666666666666668,50,0,25" fill="#ddd" fill-opacity="0.07200000000000001" stroke="#000" stroke-opacity="0.02" transform="translate(236.66666666666669,100)"></polyline></svg>