<svg xmlns="http://www.w3.org/2000/svg" width="320" height="756"><rect x="0" y="0" width="100%" height="100%" fill="rgb(147,62,60)"></rect><path d="M0 30 C 56 0, 104 0, 160 30 S 264 60, 320 30 S 424 0, 480, 30" fill="none" stroke="#222" opacity="0.11533333333333334" stroke-width="21px" transform="translate(-80,-45)"></path><path d="M0 30 C 56 0, 104 0, 160 30 S 264 60, 320 30 S 424 0, 480, 30" fill="none" stroke="#222" opacity="0.11533333333333334" stroke-width="21px" transform="translate(-80,711)"></path><path d="M0 30 C 56 0, 104 0, 160 30 S 264 60, 320 30 S 424 0, 480, 30" fill="none" stroke="#ddd" opacity="0.02" stroke-width="21px" transform="translate(-80,-24)"></path><path d="M0 30 C 56 0, 104 0, 160 30 S 264 60, 320 30 S 424 0, 480, 30" fill="none" stroke="#ddd" opacity="0.02" stroke-width="21px" transform="translate(-80,732)"></path><path d="M0 30 C 56 0, 104 0, 160 30 S 264 60, 320 30 S 424 0, 480, 30" fill="none" stroke="#ddd" opacity="0.10666666666666667" stroke-width="21px" transform="translate(-80,-3)"></path><path d="M0 30 C 56 0, 104 0, 160 30 S 264 60, 320 30 S 424 0, 480, 30" fill="none" stroke="#ddd" opacity="0.10666666666666667" stroke-width="21px" transform="translate(-80,753)"></path><path d="M0 30 C 56 0, 104 0, 160 30 S 264 60, 320 30 S 424 0, 480, 30" fill="none" stroke="#222" opacity="0.098" stroke-width="21px" transform="translate(-80,18)"></path><path d="M0 30 C 56 0, 104 0, 160 30 S 264 60, 320 30 S 424 0, 480, 30" fill="none" stroke="#222" opacity="0.098" stroke-width="21px" transform="translate(-80,774)"></path><path d="M0 30 C 56 0, 104 0, 160 30 S 264 60, 320 30 S 424 0, 480, 30" fill="none" stroke="#ddd" opacity="0.07200000000000001" stroke-width="21px" transform="translate(-80,39)"></path><path d="M0 30 C 56 0, 104 0, 160 30 S 264 60, 320 30 S 424 0, 480, 30" fill="none" stroke="#ddd" opacity="0.07200000000000001" stroke-width="21px" transform="translate(-80,795)"></path><path d="M0 30 C 56 0, 104 0, 160 30 S 264 60, 320 30 S 424 0, 480, 30" fill="none" stroke="#ddd" opacity="0.08933333333333333" stroke-width="21px" transform="translate(-80,60)"></path><path d="M0 30 C 56 0, 104 0, 160 30 S 264 60, 320 30 S 424 0, 480, 30" fill="none" stroke="#ddd" opacity="0.08933333333333333" stroke-width="21px" transform="translate(-80,816)"></path><path d="M0 30 C 56 0, 104 0, 160 30 S 264 60, 320 30 S 424 0, 480, 30" fill="none" stroke="#222" opacity="0.13266666666666665" stroke-width="21px" transform="translate(-80,81)"></path><path d="M0 30 C 56 0, 104 0, 160 30 S 264 60, 320 30 S 424 0, 480, 30" fill="none" stroke="#222" opacity="0.13266666666666665" stroke-width="21px" transform="translate(-80,837)"></path><path d="M0 30 C 56 0, 104 0, 160 30 S 264 60, 320 30 S 424 0, 480, 30" fill="none" stroke="#ddd" opacity="0.02" stroke-width="21px" transform="translate(-80,102)"></path><path d="M0 30 C 56 0, 104 0, 160 30 S 264 60, 320 30 S 424 0, 480, 30" fill="none" stroke="#ddd" opacity="0.02" stroke-width="21px" transform="translate(-80,858)"></path><path d="M0 30 C 56 0, 104 0, 160 30 S 264 60, 320 30 S 424 0, 480, 30" fill="none" stroke="#222" opacity="0.15" stroke-width="21px" transform="translate(-80,123)"></path><path d="M0 30 C 56 0, 104 0, 160 30 S 264 60, 320 30 S 424 0, 480, 30" fill="none" stroke="#222" opacity="0.15" stroke-width="21px" transform="translate(-80,879)"></path><path d="M0 30 C 56 0, 104 0, 160 30 S 264 60, 320 30 S 424 0, 480, 30" fill="none" stroke="#222" opacity="0.15" stroke-width="21px" transform="translate(-80,144)"></path><path d="M0 30 C 56 0, 104 0, 160 30 S 264 60, 320 30 S 424 0, 480, 30" fill="none" stroke="#222" opacity="0.15" stroke-width="21px" transform="translate(-80,900)"></path><path d="M0 30 C 56 0, 104 0, 160 30 S 264 60, 320 30 S 424 0, 480, 30" fill="none" stroke="#222" opacity="0.11533333333333334" stroke-width="21px" transform="translate(-80,165)"></path><path d="M0 30 C 56 0, 104 0, 160 30 S 264 60, 320 30 S 424 0, 480, 30" fill="none" stroke="#222" opacity="0.11533333333333334" stroke-width="21px" transform="translate(-80,921)"></path><path d="M0 30 C 56 0, 104 0, 160 30 S 264 60, 320 30 S 424 0, 480, 30" fill="none" stroke="#222" opacity="0.098" stroke-width="21px" transform="translate(-80,186)"></path><path d="M0 30 C 56 0, 104 0, 160 30 S 264 60, 320 30 S 424 0, 480, 30" fill="none" stroke="#222" opacity="0.098" stroke-width="21px" transform="translate(-80,942)"></path><path d="M0 30 C 56 0, 104 0, 160 30 S 264 60, 320 30 S 424 0, 480, 30" fill="none" stroke="#222" opacity="0.15" stroke-width="21px" transform="translate(-80,207)"></path><path d="M0 30 C 56 0, 104 0, 160 30 S 264 60, 320 30 S 424 0, 480, 30" fill="none" stroke="#222" opacity="0.15" stroke-width="21px" transform="translate(-80,963)"></path><path d="M0 30 C 56 0, 104 0, 160 30 S 264 60, 320 30 S 424 0, 480, 30" fill="none" stroke="#ddd" opacity="0.10666666666666667" stroke-width="21px" transform="translate(-80,228)"></path><path d="M0 30 C 56 0, 104 0, 160 30 S 264 60, 320 30 S 424 0, 480, 30" fill="none" stroke="#ddd" opacity="0.10666666666666667" stroke-width="21px" transform="translate(-80,984)"></path><path d="M0 30 C 56 0, 104 0, 160 30 S 264 60, 320 30 S 424 0, 480, 30" fill="none" stroke="#222" opacity="0.15" stroke-width="21px" transform="translate(-80,249)"></path><path d="M0 30 C 56 0, 104 0, 160 30 S 264 60, 320 30 S 424 0, 480, 30" fill="none" stroke="#222" opacity="0.15" stroke-width="21px" transform="translate(-80,1005)"></path><path d="M0 30 C 56 0, 104 0, 160 30 S 264 60, 320 30 S 424 0, 480, 30" fill="none" stroke="#222" opacity="0.15" stroke-width="21px" transform="translate(-80,270)"></path><path d="M0 30 C 56 0, 104 0, 160 30 S 264 60, 320 30 S 424 0, 480, 30" fill="none" stroke="#222" opacity="0.15" stroke-width="21px" transform="translate(-80,1026)"></path><path d="M0 30 C 56 0, 104 0, 160 30 S 264 60, 320 30 S 424 0, 480, 30" fill="none" stroke="#ddd" opacity="0.12400000000000001" stroke-width="21px" transform="translate(-80,291)"></path><path d="M0 30 C 56 0, 104 0, 160 30 S 264 60, 320 30 S 424 0, 480, 30" fill="none" stroke="#ddd" opacity="0.12400000000000001" stroke-width="21px" transform="translate(-80,1047)"></path><path d="M0 30 C 56 0, 104 0, 160 30 S 264 60, 320 30 S 424 0, 480, 30" fill="none" stroke="#ddd" opacity="0.02" stroke-width="21px" transform="translate(-80,312)"></path><path d="M0 30 C 56 0, 104 0, 160 30 S 264 60, 320 30 S 424 0, 480, 30" fill="none" stroke="#ddd" opacity="0.02" stroke-width="21px" transform="translate(-80,1068)"></path><path d="M0 30 C 56 0, 104 0, 160 30 S 264 60, 320 30 S 424 0, 480, 30" fill="none" stroke="#ddd" opacity="0.03733333333333333" stroke-width="21px" transform="translate(-80,333)"></path><path d="M0 30 C 56 0, 104 0, 160 30 S 264 60, 320 30 S 424 0, 480, 30" fill="none" stroke="#ddd" opacity="0.03733333333333333" stroke-width="21px" transform="translate(-80,1089)"></path><path d="M0 30 C 56 0, 104 0, 160 30 S 264 60, 320 30 S 424 0, 480, 30" fill="none" stroke="#222" opacity="0.13266666666666665" stroke-width="21px" transform="translate(-80,354)"></path><path d="M0 30 C 56 0, 104 0, 160 30 S 264 60, 320 30 S 424 0, 480, 30" fill="none" stroke="#222" opacity="0.13266666666666665" stroke-width="21px" transform="translate(-80,1110)"></path><path d="M0 30 C 56 0, 104 0, 160 30 S 264 60, 320 30 S 424 0, 480, 30" fill="none" stroke="#ddd" opacity="0.05466666666666667" stroke-width="21px" transform="translate(-80,375)"></path><path d="M0 30 C 56 0, 104 0, 160 30 S 264 60, 320 30 S 424 0, 480, 30" fill="none" stroke="#ddd" opacity="0.05466666666666667" stroke-width="21px" transform="translate(-80,1131)"></path><path d="M0 30 C 56 0, 104 0, 160 30 S 264 60, 320 30 S 424 0, 480, 30" fill="none" stroke="#222" opacity="0.15" stroke-width="21px" transform="translate(-80,396)"></path><path d="M0 30 C 56 0, 104 0, 160 30 S 264 60, 320 30 S 424 0, 480, 30" fill="none" stroke="#222" opacity="0.15" stroke-width="21px" transform="translate(-80,1152)"></path><path d="M0 30 C 56 0, 104 0, 160 30 S 264 60, 320 30 S 424 0, 480, 30" fill="none" stroke="#ddd" opacity="0.03733333333333333" stroke-width="21px" transform="translate(-80,417)"></path><path d="M0 30 C 56 0, 104 0, 160 30 S 264 60, 320 30 S 424 0, 480, 30" fill="none" stroke="#ddd" opacity="0.03733333333333333" stroke-width="21px" transform="translate(-80,1173)"></path><path d="M0 30 C 56 0, 104 0, 160 30 S 264 60, 320 30 S 424 0, 480, 30" fill="none" stroke="#222" opacity="0.13266666666666665" stroke-width="21px" transform="translate(-80,438)"></path><path d="M0 30 C 56 0, 104 0, 160 30 S 264 60, 320 30 S 424 0, 480, 30" fill="none" stroke="#222" opacity="0.13266666666666665" stroke-width="21px" transform="translate(-80,1194)"></path><path d="M0 30 C 56 0, 104 0, 160 30 S 264 60, 320 30 S 424 0, 480, 30" fill="none" stroke="#222" opacity="0.06333333333333334" stroke-width="21px" transform="translate(-80,459)"></path><path d="M0 30 C 56 0, 104 0, 160 30 S 264 60, 320 30 S 424 0, 480, 30" fill="none" stroke="#222" opacity="0.06333333333333334" stroke-width="21px" transform="translate(-80,1215)"></path><path d="M0 30 C 56 0, 104 0, 160 30 S 264 60, 320 30 S 424 0, 480, 30" fill="none" stroke="#ddd" opacity="0.02" stroke-width="21px" transform="translate(-80,480)"></path><path d="M0 30 C 56 0, 104 0, 160 30 S 264 60, 320 30 S 424 0, 480, 30" fill="none" stroke="#ddd" opacity="0.02" stroke-width="21px" transform="translate(-80,1236)"></path><path d="M0 30 C 56 0, 104 0, 160 30 S 264 60, 320 30 S 424 0, 480, 30" fill="none" stroke="#ddd" opacity="0.02" stroke-width="21px" transform="translate(-80,501)"></path><path d="M0 30 C 56 0, 104 0, 160 30 S 264 60, 320 30 S 424 0, 480, 30" fill="none" stroke="#ddd" opacity="0.02" stroke-width="21px" transform="translate(-80,1257)"></path><path d="M0 30 C 56 0, 104 0, 160 30 S 264 60, 320 30 S 424 0, 480, 30" fill="none" stroke="#ddd" opacity="0.03733333333333333" stroke-width="21px" transform="translate(-80,522)"></path><path d="M0 30 C 56 0, 104 0, 160 30 S 264 60, 320 30 S 424 0, 480, 30" fill="none" stroke="#ddd" opacity="0.03733333333333333" stroke-width="21px" transform="translate(-80,1278)"></path><path d="M0 30 C 56 0, 104 0, 160 30 S 264 60, 320 30 S 424 0, 480, 30" fill="none" stroke="#ddd" opacity="0.12400000000000001" stroke-width="21px" transform="translate(-80,543)"></path><path d="M0 30 C 56 0, 104 0, 160 30 S 264 60, 320 30 S 424 0, 480, 30" fill="none" stroke="#ddd" opacity="0.12400000000000001" stroke-width="21px" transform="translate(-80,1299)"></path><path d="M0 30 C 56 0, 104 0, 160 30 S 264 60, 320 30 S 424 0, 480, 30" fill="none" stroke="#ddd" opacity="0.02" stroke-width="21px" transform="translate(-80,564)"></path><path d="M0 30 C 56 0, 104 0, 160 30 S 264 60, 320 30 S 424 0, 480, 30" fill="none" stroke="#ddd" opacity="0.02" stroke-width="21px" transform="translate(-80,1320)"></path><path d="M0 30 C 56 0, 104 0, 160 30 S 264 60, 320 30 S 424 0, 480, 30" fill="none" stroke="#ddd" opacity="0.02" stroke-width="21px" transform="translate(-80,585)"></path><path d="M0 30 C 56 0, 104 0, 160 30 S 264 60, 320 30 S 424 0, 480, 30" fill="none" stroke="#ddd" opacity="0.02" stroke-width="21px" transform="translate(-80,1341)"></path><path d="M0 30 C 56 0, 104 0, 160 30 S 264 60, 320 30 S 424 0, 480, 30" fill="none" stroke="#222" opacity="0.028666666666666667" stroke-width="21px" transform="translate(-80,606)"></path><path d="M0 30 C 56 0, 104 0, 160 30 S 264 60, 320 30 S 424 0, 480, 30" fill="none" stroke="#222" opacity="0.028666666666666667" stroke-width="21px" transform="translate(-80,1362)"></path><path d="M0 30 C 56 0, 104 0, 160 30 S 264 60, 320 30 S 424 0, 480, 30" fill="none" stroke="#222" opacity="0.11533333333333334" stroke-width="21px" transform="translate(-80,627)"></path><path d="M0 30 C 56 0, 104 0, 160 30 S 264 60, 320 30 S 424 0, 480, 30" fill="none" stroke="#222" opacity="0.11533333333333334" stroke-width="21px" transform="translate(-80,1383)"></path><path d="M0 30 C 56 0, 104 0, 160 30 S 264 60, 320 30 S 424 0, 480, 30" fill="none" stroke="#ddd" opacity="0.03733333333333333" stroke-width="21px" transform="translate(-80,648)"></path><path d="M0 30 C 56 0, 104 0, 160 30 S 264 60, 320 30 S 424 0, 480, 30" fill="none" stroke="#ddd" opacity="0.03733333333333333" stroke-width="21px" transform="translate(-80,1404)"></path><path d="M0 30 C 56 0, 104 0, 160 30 S 264 60, 320 30 S 424 0, 480, 30" fill="none" stroke="#ddd" opacity="0.05466666666666667" stroke-width="21px" transform="translate(-80,669)"></path><path d="M0 30 C 56 0, 104 0, 160 30 S 264 60, 320 30 S 424 0, 480, 30" fill="none" stroke="#ddd" opacity="0.05466666666666667" stroke-width="21px" transform="translate(-80,1425)"></path><path d="M0 30 C 56 0, 104 0, 160 30 S 264 60, 320 30 S 424 0, 480, 30" fill="none" stroke="#ddd" opacity="0.08933333333333333" stroke-width="21px" transform="translate(-80,690)"></path><path d="M0 30 C 56 0, 104 0, 160 30 S 264 60, 320 30 S 424 0, 480, 30" fill="none" stroke="#ddd" opacity="0.08933333333333333" stroke-width="21px" transform="translate(-80,1446)"></path></svg>