<svg xmlns="http://www.w3.org/2000/svg" width="194" height="194"><rect x="0" y="0" width="100%" height="100%" fill="rgb(60,147,109)"></rect><polyline points="0,0,24.333333333333336,24.333333333333336,0,24.333333333333336,0,0" stroke="#000" stroke-opacity="0.02" fill-opacity="0.05466666666666667" fill="#ddd" transform="translate(0,24.333333333333336) scale(1,-1)"></polyline><polyline points="0,0,24.333333333333336,24.333333333333336,0,24.333333333333336,0,0" stroke="#000" stroke-opacity="0.02" fill-opacity="0.05466666666666667" fill="#ddd" transform="translate(48.66666666666667,24.333333333333336) scale(-1,-1)"></polyline><polyline points="0,0,24.333333333333336,24.333333333333336,0,24.333333333333336,0,0" stroke="#000" stroke-opacity="0.02" fill-opacity="0.05466666666666667" fill="#ddd" transform="translate(0,24.333333333333336) scale(1,1)"></polyline><polyline points="0,0,24.333333333333336,24.333333333333336,0,24.333333333333336,0,0" stroke="#000" stroke-opacity="0.02" fill-opacity="0.05466666666666667" fill="#ddd" transform="translate(48.66666666666667,24.333333333333336) scale(-1,1)"></polyline><polyline points="0,0,24.333333333333336,24.333333333333336,0,24.333333333333336,0,0" stroke="#000" stroke-opacity="0.02" fill-opacity="0.14133333333333334" fill="#ddd" transform="translate(73,0) scale(-1,1)"></polyline><polyline points="0,0,24.333333333333336,24.333333333333336,0,24.333333333333336,0,0" stroke="#000" stroke-opacity="0.02" fill-opacity="0.14133333333333334" fill="#ddd" transform="translate(73,48.66666666666667) scale(1,-1)"></polyline><polyline points="0,0,24.333333333333336,24.333333333333336,0,24.333333333333336,0,0" stroke="#000" stroke-opacity="0.02" fill-opacity="0.13266666666666665" fill="#222" transform="translate(73,48.66666666666667) scale(-1,-1)"></polyline><polyline points="0,0,24.333333333333336,24.333333333333336,0,24.333333333333336,0,0" stroke="#000" stroke-opacity="0.02" fill-opacity="0.13266666666666665" fill="#222" transform="translate(73,0) scale(1,1)"></polyline><polyline points="0,0,24.333333333333336,24.333333333333336,0,24.333333333333336,0,0" stroke="#000" stroke-opacity="0.02" fill-opacity="0.13266666666666665" fill="#222" transform="translate(97.33333333333334,24.333333333333336) scale(1,-1)"></polyline><polyline points="0,0,24.333333333333336,24.333333333333336,0,24.333333333333336,0,0" stroke="#000" stroke-opacity="0.02" fill-opacity="0.13266666666666665" fill="#222" transform="translate(146,24.333333333333336) scale(-1,-1)"></polyline><polyline points="0,0,24.333333333333336,24.333333333333336,0,24.333333333333336,0,0" stroke="#000" stroke-opacity="0.02" fill-opacity="0.13266666666666665" fill="#222" transform="translate(97.33333333333334,24.333333333333336) scale(1,1)"></polyline><polyline points="0,0,24.333333333333336,24.333333333333336,0,24.333333333333336,0,0" stroke="#000" stroke-opacity="0.02" fill-opacity="0.13266666666666665" fill="#222" transform="translate(146,24.333333333333336) scale(-1,1)"></polyline><polyline points="0,0,24.333333333333336,24.333333333333336,0,24.333333333333336,0,0" stroke="#000" stroke-opacity="0.02" fill-opacity="0.098" fill="#222" transform="translate(170.33333333333334,0) scale(-1,1)"></polyline><polyline points="0,0,24.333333333333336,24.333333333333336,0,24.333333333333336,0,0" stroke="#000" stroke-opacity="0.02" fill-opacity="0.098" fill="#222" transform="translate(170.33333333333334,48.66666666666667) scale(1,-1)"></polyline><polyline points="0,0,24.333333333333336,24.333333333333336,0,24.333333333333336,0,0" stroke="#000" stroke-opacity="0.02" fill-opacity="0.06333333333333334" fill="#222" transform="translate(170.33333333333334,48.66666666666667) scale(-1,-1)"></polyline><polyline points="0,0,24.333333333333336,24.333333333333336,0,24.333333333333336,0,0" stroke="#000" stroke-opacity="0.02" fill-opacity="0.06333333333333334" fill="#222" transform="translate(170.33333333333334,0) scale(1,1)"></polyline><polyline points="0,0,24.333333333333336,24.333333333333336,0,24.333333333333336,0,0" stroke="#000" stroke-opacity="0.02" fill-opacity="0.06333333333333334" fill="#222" transform="translate(24.333333333333336,48.66666666666667) scale(-1,1)"></polyline><polyline points="0,0,24.333333333333336,24.333333333333336,0,24.333333333333336,0,0" stroke="#000" stroke-opacity="0.02" fill-opacity="0.06333333333333334" fill="#222" transform="translate(24.333333333333336,97.33333333333334) scale(1,-1)"></polyline><polyline points="0,0,24.333333333333336,24.333333333333336,0,24.333333333333336,0,0" stroke="#000" stroke-opacity="0.02" fill-opacity="0.028666666666666667" fill="#222" transform="translate(24.333333333333336,97.33333333333334) scale(-1,-1)"></polyline><polyline points="0,0,24.333333333333336,24.333333333333336,0,24.333333333333336,0,0" stroke="#000" stroke-opacity="0.02" fill-opacity="0.028666666666666667" fill="#222" transform="translate(24.333333333333336,48.66666666666667) scale(1,1)"></polyline><polyline points="0,0,24.333333333333336,24.333333333333336,0,24.333333333333336,0,0" stroke="#000" stroke-opacity="0.02" fill-opacity="0.028666666666666667" fill="#222" transform="translate(48.66666666666667,73) scale(1,-1)"></polyline><polyline points="0,0,24.333333333333336,24.333333333333336,0,24.333333333333336,0,0" stroke="#000" stroke-opacity="0.02" fill-opacity="0.028666666666666667" fill="#222" transform="translate(97.33333333333334,73) scale(-1,-1)"></polyline><polyline points="0,0,24.333333333333336,24.333333333333336,0,24.333333333333336,0,0" stroke="#000" stroke-opacity="0.02" fill-opacity="0.028666666666666667" fill="#222" transform="translate(48.66666666666667,73) scale(1,1)"></polyline><polyline points="0,0,24.333333333333336,24.333333333333336,0,24.333333333333336,0,0" stroke="#000" stroke-opacity="0.02" fill-opacity="0.028666666666666667" fill="#222" transform="translate(97.33333333333334,73) scale(-1,1)"></polyline><polyline points="0,0,24.333333333333336,24.333333333333336,0,24.333333333333336,0,0" stroke="#000" stroke-opacity="0.02" fill-opacity="0.05466666666666667" fill="#ddd" transform="translate(121.66666666666669,48.66666666666667) scale(-1,1)"></polyline><polyline points="0,0,24.333333333333336,24.333333333333336,0,24.333333333333336,0,0" stroke="#000" stroke-opacity="0.02" fill-opacity="0.05466666666666667" fill="#ddd" transform="translate(121.66666666666669,97.33333333333334) scale(1,-1)"></polyline><polyline points="0,0,24.333333333333336,24.333333333333336,0,24.333333333333336,0,0" stroke="#000" stroke-opacity="0.02" fill-opacity="0.046" fill="#222" transform="translate(121.66666666666669,97.33333333333334) scale(-1,-1)"></polyline><polyline points="0,0,24.333333333333336,24.333333333333336,0,24.333333333333336,0,0" stroke="#000" stroke-opacity="0.02" fill-opacity="0.046" fill="#222" transform="translate(121.66666666666669,48.66666666666667) scale(1,1)"></polyline><polyline points="0,0,24.333333333333336,24.333333333333336,0,24.333333333333336,0,0" stroke="#000" stroke-opacity="0.02" fill-opacity="0.046" fill="#222" transform="translate(146,73) scale(1,-1)"></polyline><polyline points="0,0,24.333333333333336,24.333333333333336,0,24.333333333333336,0,0" stroke="#000" stroke-opacity="0.02" fill-opacity="0.046" fill="#222" transform="translate(194.66666666666669,73) scale(-1,-1)"></polyline><polyline points="0,0,24.333333333333336,24.333333333333336,0,24.333333333333336,0,0" stroke="#000" stroke-opacity="0.02" fill-opacity="0.046" fill="#222" transform="translate(146,73) scale(1,1)"></polyline><polyline points="0,0,24.333333333333336,24.333333333333336,0,24.333333333333336,0,0" stroke="#000" stroke-opacity="0.02" fill-opacity="0.046" fill="#222" transform="translate(194.66666666666669,73) scale(-1,1)"></polyline><polyline points="0,0,24.333333333333336,24.333333333333336,0,24.333333333333336,0,0" stroke="#000" stroke-opacity="0.02" fill-opacity="0.03733333333333333" fill="#ddd" transform="translate(0,121.66666666666669) scale(1,-1)"></polyline><polyline points="0,0,24.333333333333336,24.333333333333336,0,24.333333333333336,0,0" stroke="#000" stroke-opacity="0.02" fill-opacity="0.03733333333333333" fill="#ddd" transform="translate(48.66666666666667,121.66666666666669) scale(-1,-1)"></polyline><polyline points="0,0,24.333333333333336,24.333333333333336,0,24.333333333333336,0,0" stroke="#000" stroke-opacity="0.02" fill-opacity="0.03733333333333333" fill="#ddd" transform="translate(0,121.66666666666669) scale(1,1)"></polyline><polyline points="0,0,24.333333333333336,24.333333333333336,0,24.333333333333336,0,0" stroke="#000" stroke-opacity="0.02" fill-opacity="0.03733333333333333" fill="#ddd" transform="translate(48.66666666666667,121.66666666666669) scale(-1,1)"></polyline><polyline points="0,0,24.333333333333336,24.333333333333336,0,24.333333333333336,0,0" stroke="#000" stroke-opacity="0.02" fill-opacity="0.098" fill="#222" transform="translate(73,97.33333333333334) scale(-1,1)"></polyline><polyline points="0,0,24.333333333333336,24.333333333333336,0,24.333333333333336,0,0" stroke="#000" stroke-opacity="0.02" fill-opacity="0.098" fill="#222" transform="translate(73,146) scale(1,-1)"></polyline><polyline points="0,0,24.333333333333336,24.333333333333336,0,24.333333333333336,0,0" stroke="#000" stroke-opacity="0.02" fill-opacity="0.15" fill="#222" transform="translate(73,146) scale(-1,-1)"></polyline><polyline points="0,0,24.333333333333336,24.333333333333336,0,24.333333333333336,0,0" stroke="#000" stroke-opacity="0.02" fill-opacity="0.15" fill="#222" transform="translate(73,97.33333333333334) scale(1,1)"></polyline><polyline points="0,0,24.333333333333336,24.333333333333336,0,24.333333333333336,0,0" stroke="#000" stroke-opacity="0.02" fill-opacity="0.15" fill="#222" transform="translate(97.33333333333334,121.66666666666669) scale(1,-1)"></polyline><polyline points="0,0,24.333333333333336,24.333333333333336,0,24.333333333333336,0,0" stroke="#000" stroke-opacity="0.02" fill-opacity="0.15" fill="#222" transform="translate(146,121.66666666666669) scale(-1,-1)"></polyline><polyline points="0,0,24.333333333333336,24.333333333333336,0,24.333333333333336,0,0" stroke="#000" stroke-opacity="0.02" fill-opacity="0.15" fill="#222" transform="translate(97.33333333333334,121.66666666666669) scale(1,1)"></polyline><polyline points="0,0,24.333333333333336,24.333333333333336,0,24.333333333333336,0,0" stroke="#000" stroke-opacity="0.02" fill-opacity="0.15" fill="#222" transform="translate(146,121.66666666666669) scale(-1,1)"></polyline><polyline points="0,0,24.333333333333336,24.333333333333336,0,24.333333333333336,0,0" stroke="#000" stroke-opacity="0.02" fill-opacity="0.07200000000000001" fill="#ddd" transform="translate(170.33333333333334,97.33333333333334) scale(-1,1)"></polyline><polyline points="0,0,24.333333333333336,24.333333333333336,0,24.333333333333336,0,0" stroke="#000" stroke-opacity="0.02" fill-opacity="0.07200000000000001" fill="#ddd" transform="translate(170.33333333333334,146) scale(1,-1)"></polyline><polyline points="0,0,24.333333333333336,24.333333333333336,0,24.333333333333336,0,0" stroke="#000" stroke-opacity="0.02" fill-opacity="0.08066666666666666" fill="#222" transform="translate(170.33333333333334,146) scale(-1,-1)"></polyline><polyline points="0,0,24.333333333333336,24.333333333333336,0,24.333333333333336,0,0" stroke="#000" stroke-opacity="0.02" fill-opacity="0.08066666666666666" fill="#222" transform="translate(170.33333333333334,97.33333333333334) scale(1,1)"></polyline><polyline points="0,0,24.333333333333336,24.333333333333336,0,24.333333333333336,0,0" stroke="#000" stroke-opacity="0.02" fill-opacity="0.08066666666666666" fill="#222" transform="translate(24.333333333333336,146) scale(-1,1)"></polyline><polyline points="0,0,24.333333333333336,24.333333333333336,0,24.333333333333336,0,0" stroke="#000" stroke-opacity="0.02" fill-opacity="0.08066666666666666" fill="#222" transform="translate(24.333333333333336,194.66666666666669) scale(1,-1)"></polyline><polyline points="0,0,24.333333333333336,24.333333333333336,0,24.333333333333336,0,0" stroke="#000" stroke-opacity="0.02" fill-opacity="0.14133333333333334" fill="#ddd" transform="translate(24.333333333333336,194.66666666666669) scale(-1,-1)"></polyline><polyline points="0,0,24.333333333333336,24.333333333333336,0,24.333333333333336,0,0" stroke="#000" stroke-opacity="0.02" fill-opacity="0.14133333333333334" fill="#ddd" transform="translate(24.333333333333336,146) scale(1,1)"></polyline><polyline points="0,0,24.333333333333336,24.333333333333336,0,24.333333333333336,0,0" stroke="#000" stroke-opacity="0.02" fill-opacity="0.14133333333333334" fill="#ddd" transform="translate(48.66666666666667,170.33333333333334) scale(1,-1)"></polyline><polyline points="0,0,24.333333333333336,24.333333333333336,0,24.333333333333336,0,0" stroke="#000" stroke-opacity="0.02" fill-opacity="0.14133333333333334" fill="#ddd" transform="translate(97.33333333333334,170.33333333333334) scale(-1,-1)"></polyline><polyline points="0,0,24.333333333333336,24.333333333333336,0,24.333333333333336,0,0" stroke="#000" stroke-opacity="0.02" fill-opacity="0.14133333333333334" fill="#ddd" transform="translate(48.66666666666667,170.33333333333334) scale(1,1)"></polyline><polyline points="0,0,24.333333333333336,24.333333333333336,0,24.333333333333336,0,0" stroke="#000" stroke-opacity="0.02" fill-opacity="0.14133333333333334" fill="#ddd" transform="translate(97.33333333333334,170.33333333333334) scale(-1,1)"></polyline><polyline points="0,0,24.333333333333336,24.333333333333336,0,24.333333333333336,0,0" stroke="#000" stroke-opacity="0.02" fill-opacity="0.098" fill="#222" transform="translate(121.66666666666669,146) scale(-1,1)"></polyline><polyline points="0,0,24.333333333333336,24.333333333333336,0,24.333333333333336,0,0" stroke="#000" stroke-opacity="0.02" fill-opacity="0.098" fill="#222" transform="translate(121.66666666666669,194.66666666666669) scale(1,-1)"></polyline><polyline points="0,0,24.333333333333336,24.333333333333336,0,24.333333333333336,0,0" stroke="#000" stroke-opacity="0.02" fill-opacity="0.046" fill="#222" transform="translate(121.66666666666669,194.66666666666669) scale(-1,-1)"></polyline><polyline points="0,0,24.333333333333336,24.333333333333336,0,24.333333333333336,0,0" stroke="#000" stroke-opacity="0.02" fill-opacity="0.046" fill="#222" transform="translate(121.66666666666669,146) scale(1,1)"></polyline><polyline points="0,0,24.333333333333336,24.333333333333336,0,24.333333333333336,0,0" stroke="#000" stroke-opacity="0.02" fill-opacity="0.046" fill="#222" transform="translate(146,170.33333333333334) scale(1,-1)"></polyline><polyline points="0,0,24.333333333333336,24.333333333333336,0,24.333333333333336,0,0" stroke="#000" stroke-opacity="0.02" fill-opacity="0.046" fill="#222" transform="translate(194.66666666666669,170.33333333333334) scale(-1,-1)"></polyline><polyline points="0,0,24.333333333333336,24.333333333333336,0,24.333333333333336,0,0" stroke="#000" stroke-opacity="0.02" fill-opacity="0.046" fill="#222" transform="translate(146,170.33333333333334) scale(1,1)"></polyline><polyline points="0,0,24.333333333333336,24.333333333333336,0,24.333333333333336,0,0" stroke="#000" stroke-opacity="0.02" fill-opacity="0.046" fill="#222" transform="translate(194.66666666666669,170.33333333333334) scale(-1,1)"></polyline></svg>