<svg xmlns="http://www.w3.org/2000/svg" width="390" height="390"><rect x="0" y="0" width="100%" height="100%" fill="rgb(60,147,133)"></rect><circle cx="0" cy="0" r="65" fill="#222" opacity="0.098"></circle><circle cx="390" cy="0" r="65" fill="#222" opacity="0.098"></circle><circle cx="0" cy="390" r="65" fill="#222" opacity="0.098"></circle><circle cx="390" cy="390" r="65" fill="#222" opacity="0.098"></circle><circle cx="65" cy="0" r="65" fill="#ddd" opacity="0.12400000000000001"></circle><circle cx="65" cy="390" r="65" fill="#ddd" opacity="0.12400000000000001"></circle><circle cx="130" cy="0" r="65" fill="#222" opacity="0.08066666666666666"></circle><circle cx="130" cy="390" r="65" fill="#222" opacity="0.08066666666666666"></circle><circle cx="195" cy="0" r="65" fill="#ddd" opacity="0.14133333333333334"></circle><circle cx="195" cy="390" r="65" fill="#ddd" opacity="0.14133333333333334"></circle><circle cx="260" cy="0" r="65" fill="#ddd" opacity="0.14133333333333334"></circle><circle cx="260" cy="390" r="65" fill="#ddd" opacity="0.14133333333333334"></circle><circle cx="325" cy="0" r="65" fill="#222" opacity="0.13266666666666665"></circle><circle cx="325" cy="390" r="65" fill="#222" opacity="0.13266666666666665"></circle><circle cx="0" cy="65" r="65" fill="#ddd" opacity="0.02"></circle><circle cx="390" cy="65" r="65" fill="#ddd" opacity="0.02"></circle><circle cx="65" cy="65" r="65" fill="#ddd" opacity="0.07200000000000001"></circle><circle cx="130" cy="65" r="65" fill="#222" opacity="0.06333333333333334"></circle><circle cx="195" cy="65" r="65" fill="#222" opacity="0.13266666666666665"></circle><circle cx="260" cy="65" r="65" fill="#222" opacity="0.028666666666666667"></circle><circle cx="325" cy="65" r="65" fill="#222" opacity="0.028666666666666667"></circle><circle cx="0" cy="130" r="65" fill="#ddd" opacity="0.12400000000000001"></circle><circle cx="390" cy="130" r="65" fill="#ddd" opacity="0.12400000000000001"></circle><circle cx="65" cy="130" r="65" fill="#ddd" opacity="0.02"></circle><circle cx="130" cy="130" r="65" fill="#ddd" opacity="0.08933333333333333"></circle><circle cx="195" cy="130" r="65" fill="#222" opacity="0.08066666666666666"></circle><circle cx="260" cy="130" r="65" fill="#ddd" opacity="0.03733333333333333"></circle><circle cx="325" cy="130" r="65" fill="#ddd" opacity="0.02"></circle><circle cx="0" cy="195" r="65" fill="#ddd" opacity="0.08933333333333333"></circle><circle cx="390" cy="195" r="65" fill="#ddd" opacity="0.08933333333333333"></circle><circle cx="65" cy="195" r="65" fill="#ddd" opacity="0.10666666666666667"></circle><circle cx="130" cy="195" r="65" fill="#222" opacity="0.028666666666666667"></circle><circle cx="195" cy="195" r="65" fill="#ddd" opacity="0.12400000000000001"></circle><circle cx="260" cy="195" r="65" fill="#222" opacity="0.046"></circle><circle cx="325" cy="195" r="65" fill="#ddd" opacity="0.02"></circle><circle cx="0" cy="260" r="65" fill="#222" opacity="0.028666666666666667"></circle><circle cx="390" cy="260" r="65" fill="#222" opacity="0.028666666666666667"></circle><circle cx="65" cy="260" r="65" fill="#222" opacity="0.046"></circle><circle cx="130" cy="260" r="65" fill="#222" opacity="0.06333333333333334"></circle><circle cx="195" cy="260" r="65" fill="#ddd" opacity="0.08933333333333333"></circle><circle cx="260" cy="260" r="65" fill="#222" opacity="0.06333333333333334"></circle><circle cx="325" cy="260" r="65" fill="#ddd" opacity="0.07200000000000001"></circle><circle cx="0" cy="325" r="65" fill="#ddd" opacity="0.03733333333333333"></circle><circle cx="390" cy="325" r="65" fill="#ddd" opacity="0.03733333333333333"></circle><circle cx="65" cy="325" r="65" fill="#222" opacity="0.06333333333333334"></circle><circle cx="130" cy="325" r="65" fill="#ddd" opacity="0.05466666666666667"></circle><circle cx="195" cy="325" r="65" fill="#222" opacity="0.08066666666666666"></circle><circle cx="260" cy="325" r="65" fill="#222" opacity="0.098"></circle><circle cx="325" cy="325" r="65" fill="#222" opacity="0.13266666666666665"></circle></svg>