<svg xmlns="http://www.w3.org/2000/svg" width="285" height="285"><rect x="0" y="0" width="100%" height="100%" fill="rgb(48,159,98)"></rect><circle cx="0" cy="0" r="47.5" fill="#ddd" opacity="0.07200000000000001"></circle><circle cx="285" cy="0" r="47.5" fill="#ddd" opacity="0.07200000000000001"></circle><circle cx="0" cy="285" r="47.5" fill="#ddd" opacity="0.07200000000000001"></circle><circle cx="285" cy="285" r="47.5" fill="#ddd" opacity="0.07200000000000001"></circle><circle cx="47.5" cy="0" r="47.5" fill="#ddd" opacity="0.07200000000000001"></circle><circle cx="47.5" cy="285" r="47.5" fill="#ddd" opacity="0.07200000000000001"></circle><circle cx="95" cy="0" r="47.5" fill="#ddd" opacity="0.12400000000000001"></circle><circle cx="95" cy="285" r="47.5" fill="#ddd" opacity="0.12400000000000001"></circle><circle cx="142.5" cy="0" r="47.5" fill="#222" opacity="0.15"></circle><circle cx="142.5" cy="285" r="47.5" fill="#222" opacity="0.15"></circle><circle cx="190" cy="0" r="47.5" fill="#222" opacity="0.11533333333333334"></circle><circle cx="190" cy="285" r="47.5" fill="#222" opacity="0.11533333333333334"></circle><circle cx="237.5" cy="0" r="47.5" fill="#ddd" opacity="0.14133333333333334"></circle><circle cx="237.5" cy="285" r="47.5" fill="#ddd" opacity="0.14133333333333334"></circle><circle cx="0" cy="47.5" r="47.5" fill="#222" opacity="0.098"></circle><circle cx="285" cy="47.5" r="47.5" fill="#222" opacity="0.098"></circle><circle cx="47.5" cy="47.5" r="47.5" fill="#ddd" opacity="0.08933333333333333"></circle><circle cx="95" cy="47.5" r="47.5" fill="#222" opacity="0.08066666666666666"></circle><circle cx="142.5" cy="47.5" r="47.5" fill="#ddd" opacity="0.07200000000000001"></circle><circle cx="190" cy="47.5" r="47.5" fill="#222" opacity="0.15"></circle><circle cx="237.5" cy="47.5" r="47.5" fill="#222" opacity="0.15"></circle><circle cx="0" cy="95" r="47.5" fill="#222" opacity="0.06333333333333334"></circle><circle cx="285" cy="95" r="47.5" fill="#222" opacity="0.06333333333333334"></circle><circle cx="47.5" cy="95" r="47.5" fill="#ddd" opacity="0.02"></circle><circle cx="95" cy="95" r="47.5" fill="#222" opacity="0.098"></circle><circle cx="142.5" cy="95" r="47.5" fill="#222" opacity="0.08066666666666666"></circle><circle cx="190" cy="95" r="47.5" fill="#222" opacity="0.11533333333333334"></circle><circle cx="237.5" cy="95" r="47.5" fill="#ddd" opacity="0.12400000000000001"></circle><circle cx="0" cy="142.5" r="47.5" fill="#ddd" opacity="0.08933333333333333"></circle><circle cx="285" cy="142.5" r="47.5" fill="#ddd" opacity="0.08933333333333333"></circle><circle cx="47.5" cy="142.5" r="47.5" fill="#ddd" opacity="0.07200000000000001"></circle><circle cx="95" cy="142.5" r="47.5" fill="#222" opacity="0.028666666666666667"></circle><circle cx="142.5" cy="142.5" r="47.5" fill="#222" opacity="0.13266666666666665"></circle><circle cx="190" cy="142.5" r="47.5" fill="#ddd" opacity="0.12400000000000001"></circle><circle cx="237.5" cy="142.5" r="47.5" fill="#ddd" opacity="0.08933333333333333"></circle><circle cx="0" cy="190" r="47.5" fill="#222" opacity="0.11533333333333334"></circle><circle cx="285" cy="190" r="47.5" fill="#222" opacity="0.11533333333333334"></circle><circle cx="47.5" cy="190" r="47.5" fill="#ddd" opacity="0.08933333333333333"></circle><circle cx="95" cy="190" r="47.5" fill="#222" opacity="0.15"></circle><circle cx="142.5" cy="190" r="47.5" fill="#ddd" opacity="0.12400000000000001"></circle><circle cx="190" cy="190" r="47.5" fill="#ddd" opacity="0.14133333333333334"></circle><circle cx="237.5" cy="190" r="47.5" fill="#ddd" opacity="0.02"></circle><circle cx="0" cy="237.5" r="47.5" fill="#222" opacity="0.046"></circle><circle cx="285" cy="237.5" r="47.5" fill="#222" opacity="0.046"></circle><circle cx="47.5" cy="237.5" r="47.5" fill="#ddd" opacity="0.12400000000000001"></circle><circle cx="95" cy="237.5" r="47.5" fill="#ddd" opacity="0.12400000000000001"></circle><circle cx="142.5" cy="237.5" r="47.5" fill="#222" opacity="0.15"></circle><circle cx="190" cy="237.5" r="47.5" fill="#ddd" opacity="0.14133333333333334"></circle><circle cx="237.5" cy="237.5" r="47.5" fill="#222" opacity="0.046"></circle></svg>