<svg xmlns="http://www.w3.org/2000/svg" width="380" height="250"><rect x="0" y="0" width="100%" height="100%" fill="rgb(50,104,157)"></rect><g stroke="#000" stroke-opacity="0.02" fill="#ddd" fill-opacity="0.10666666666666667" stroke-width="1" transform="translate(0,-31.666666666666668)"><polyline points="0,0,31.666666666666668,21.53333333333333,31.666666666666668,63.333333333333336,0,41.800000000000004,0,0"></polyline><polyline points="31.666666666666668,21.53333333333333,63.333333333333336,0,63.333333333333336,41.800000000000004,31.666666666666668,63.333333333333336,31.666666666666668,21.53333333333333"></polyline></g><g stroke="#000" stroke-opacity="0.02" fill="#ddd" fill-opacity="0.10666666666666667" stroke-width="1" transform="translate(0,219.13333333333335)"><polyline points="0,0,31.666666666666668,21.53333333333333,31.666666666666668,63.333333333333336,0,41.800000000000004,0,0"></polyline><polyline points="31.666666666666668,21.53333333333333,63.333333333333336,0,63.333333333333336,41.800000000000004,31.666666666666668,63.333333333333336,31.666666666666668,21.53333333333333"></polyline></g><g stroke="#000" stroke-opacity="0.02" fill="#222" fill-opacity="0.046" stroke-width="1" transform="translate(63.333333333333336,-31.666666666666668)"><polyline points="0,0,31.666666666666668,21.53333333333333,31.666666666666668,63.333333333333336,0,41.800000000000004,0,0"></polyline><polyline points="31.666666666666668,21.53333333333333,63.333333333333336,0,63.333333333333336,41.800000000000004,31.666666666666668,63.333333333333336,31.666666666666668,21.53333333333333"></polyline></g><g stroke="#000" stroke-opacity="0.02" fill="#222" fill-opacity="0.046" stroke-width="1" transform="translate(63.333333333333336,219.13333333333335)"><polyline points="0,0,31.666666666666668,21.53333333333333,31.666666666666668,63.333333333333336,0,41.800000000000004,0,0"></polyline><polyline points="31.666666666666668,21.53333333333333,63.333333333333336,0,63.333333333333336,41.800000000000004,31.666666666666668,63.333333333333336,31.666666666666668,21.53333333333333"></polyline></g><g stroke="#000" stroke-opacity="0.02" fill="#ddd" fill-opacity="0.10666666666666667" stroke-width="1" transform="translate(126.66666666666667,-31.666666666666668)"><polyline points="0,0,31.666666666666668,21.53333333333333,31.666666666666668,63.333333333333336,0,41.800000000000004,0,0"></polyline><polyline points="31.666666666666668,21.53333333333333,63.333333333333336,0,63.333333333333336,41.800000000000004,31.666666666666668,63.333333333333336,31.666666666666668,21.53333333333333"></polyline></g><g stroke="#000" stroke-opacity="0.02" fill="#ddd" fill-opacity="0.10666666666666667" stroke-width="1" transform="translate(126.66666666666667,219.13333333333335)"><polyline points="0,0,31.666666666666668,21.53333333333333,31.666666666666668,63.333333333333336,0,41.800000000000004,0,0"></polyline><polyline points="31.666666666666668,21.53333333333333,63.333333333333336,0,63.333333333333336,41.800000000000004,31.666666666666668,63.333333333333336,31.666666666666668,21.53333333333333"></polyline></g><g stroke="#000" stroke-opacity="0.02" fill="#222" fill-opacity="0.06333333333333334" stroke-width="1" transform="translate(190,-31.666666666666668)"><polyline points="0,0,31.666666666666668,21.53333333333333,31.666666666666668,63.333333333333336,0,41.800000000000004,0,0"></polyline><polyline points="31.666666666666668,21.53333333333333,63.333333333333336,0,63.333333333333336,41.800000000000004,31.666666666666668,63.333333333333336,31.666666666666668,21.53333333333333"></polyline></g><g stroke="#000" stroke-opacity="0.02" fill="#222" fill-opacity="0.06333333333333334" stroke-width="1" transform="translate(190,219.13333333333335)"><polyline points="0,0,31.666666666666668,21.53333333333333,31.666666666666668,63.333333333333336,0,41.800000000000004,0,0"></polyline><polyline points="31.666666666666668,21.53333333333333,63.333333333333336,0,63.333333333333336,41.800000000000004,31.666666666666668,63.333333333333336,31.666666666666668,21.53333333333333"></polyline></g><g stroke="#000" stroke-opacity="0.02" fill="#ddd" fill-opacity="0.05466666666666667" stroke-width="1" transform="translate(253.33333333333334,-31.666666666666668)"><polyline points="0,0,31.666666666666668,21.53333333333333,31.666666666666668,63.333333333333336,0,41.800000000000004,0,0"></polyline><polyline points="31.666666666666668,21.53333333333333,63.333333333333336,0,63.333333333333336,41.800000000000004,31.666666666666668,63.333333333333336,31.666666666666668,21.53333333333333"></polyline></g><g stroke="#000" stroke-opacity="0.02" fill="#ddd" fill-opacity="0.05466666666666667" stroke-width="1" transform="translate(253.33333333333334,219.13333333333335)"><polyline points="0,0,31.666666666666668,21.53333333333333,31.666666666666668,63.333333333333336,0,41.800000000000004,0,0"></polyline><polyline points="31.666666666666668,21.53333333333333,63.333333333333336,0,63.333333333333336,41.800000000000004,31.666666666666668,63.333333333333336,31.666666666666668,21.53333333333333"></polyline></g><g stroke="#000" stroke-opacity="0.02" fill="#ddd" fill-opacity="0.10666666666666667" stroke-width="1" transform="translate(316.6666666666667,-31.666666666666668)"><polyline points="0,0,31.666666666666668,21.53333333333333,31.666666666666668,63.333333333333336,0,41.800000000000004,0,0"></polyline><polyline points="31.666666666666668,21.53333333333333,63.333333333333336,0,63.333333333333336,41.800000000000004,31.666666666666668,63.333333333333336,31.666666666666668,21.53333333333333"></polyline></g><g stroke="#000" stroke-opacity="0.02" fill="#ddd" fill-opacity="0.10666666666666667" stroke-width="1" transform="translate(316.6666666666667,219.13333333333335)"><polyline points="0,0,31.666666666666668,21.53333333333333,31.666666666666668,63.333333333333336,0,41.800000000000004,0,0"></polyline><polyline points="31.666666666666668,21.53333333333333,63.333333333333336,0,63.333333333333336,41.800000000000004,31.666666666666668,63.333333333333336,31.666666666666668,21.53333333333333"></polyline></g><g stroke="#000" stroke-opacity="0.02" fill="#222" fill-opacity="0.098" stroke-width="1" transform="translate(0,10.133333333333336)"><polyline points="0,0,31.666666666666668,21.53333333333333,31.666666666666668,63.333333333333336,0,41.800000000000004,0,0"></polyline><polyline points="31.666666666666668,21.53333333333333,63.333333333333336,0,63.333333333333336,41.800000000000004,31.666666666666668,63.333333333333336,31.666666666666668,21.53333333333333"></polyline></g><g stroke="#000" stroke-opacity="0.02" fill="#ddd" fill-opacity="0.10666666666666667" stroke-width="1" transform="translate(63.333333333333336,10.133333333333336)"><polyline points="0,0,31.666666666666668,21.53333333333333,31.666666666666668,63.333333333333336,0,41.800000000000004,0,0"></polyline><polyline points="31.666666666666668,21.53333333333333,63.333333333333336,0,63.333333333333336,41.800000000000004,31.666666666666668,63.333333333333336,31.666666666666668,21.53333333333333"></polyline></g><g stroke="#000" stroke-opacity="0.02" fill="#222" fill-opacity="0.046" stroke-width="1" transform="translate(126.66666666666667,10.133333333333336)"><polyline points="0,0,31.666666666666668,21.53333333333333,31.666666666666668,63.333333333333336,0,41.800000000000004,0,0"></polyline><polyline points="31.666666666666668,21.53333333333333,63.333333333333336,0,63.333333333333336,41.800000000000004,31.666666666666668,63.333333333333336,31.666666666666668,21.53333333333333"></polyline></g><g stroke="#000" stroke-opacity="0.02" fill="#222" fill-opacity="0.046" stroke-width="1" transform="translate(190,10.133333333333336)"><polyline points="0,0,31.666666666666668,21.53333333333333,31.666666666666668,63.333333333333336,0,41.800000000000004,0,0"></polyline><polyline points="31.666666666666668,21.53333333333333,63.333333333333336,0,63.333333333333336,41.800000000000004,31.666666666666668,63.333333333333336,31.666666666666668,21.53333333333333"></polyline></g><g stroke="#000" stroke-opacity="0.02" fill="#222" fill-opacity="0.13266666666666665" stroke-width="1" transform="translate(253.33333333333334,10.133333333333336)"><polyline points="0,0,31.666666666666668,21.53333333333333,31.666666666666668,63.333333333333336,0,41.800000000000004,0,0"></polyline><polyline points="31.666666666666668,21.53333333333333,63.333333333333336,0,63.333333333333336,41.800000000000004,31.666666666666668,63.333333333333336,31.666666666666668,21.53333333333333"></polyline></g><g stroke="#000" stroke-opacity="0.02" fill="#222" fill-opacity="0.15" stroke-width="1" transform="translate(316.6666666666667,10.133333333333336)"><polyline points="0,0,31.666666666666668,21.53333333333333,31.666666666666668,63.333333333333336,0,41.800000000000004,0,0"></polyline><polyline points="31.666666666666668,21.53333333333333,63.333333333333336,0,63.333333333333336,41.800000000000004,31.666666666666668,63.333333333333336,31.666666666666668,21.53333333333333"></polyline></g><g stroke="#000" stroke-opacity="0.02" fill="#222" fill-opacity="0.13266666666666665" stroke-width="1" transform="translate(0,51.93333333333334)"><polyline points="0,0,31.666666666666668,21.53333333333333,31.666666666666668,63.333333333333336,0,41.800000000000004,0,0"></polyline><polyline points="31.666666666666668,21.53333333333333,63.333333333333336,0,63.333333333333336,41.800000000000004,31.666666666666668,63.333333333333336,31.666666666666668,21.53333333333333"></polyline></g><g stroke="#000" stroke-opacity="0.02" fill="#ddd" fill-opacity="0.08933333333333333" stroke-width="1" transform="translate(63.333333333333336,51.93333333333334)"><polyline points="0,0,31.666666666666668,21.53333333333333,31.666666666666668,63.333333333333336,0,41.800000000000004,0,0"></polyline><polyline points="31.666666666666668,21.53333333333333,63.333333333333336,0,63.333333333333336,41.800000000000004,31.666666666666668,63.333333333333336,31.666666666666668,21.53333333333333"></polyline></g><g stroke="#000" stroke-opacity="0.02" fill="#ddd" fill-opacity="0.07200000000000001" stroke-width="1" transform="translate(126.66666666666667,51.93333333333334)"><polyline points="0,0,31.666666666666668,21.53333333333333,31.666666666666668,63.333333333333336,0,41.800000000000004,0,0"></polyline><polyline points="31.666666666666668,21.53333333333333,63.333333333333336,0,63.333333333333336,41.800000000000004,31.666666666666668,63.333333333333336,31.666666666666668,21.53333333333333"></polyline></g><g stroke="#000" stroke-opacity="0.02" fill="#222" fill-opacity="0.11533333333333334" stroke-width="1" transform="translate(190,51.93333333333334)"><polyline points="0,0,31.666666666666668,21.53333333333333,31.666666666666668,63.333333333333336,0,41.800000000000004,0,0"></polyline><polyline points="31.666666666666668,21.53333333333333,63.333333333333336,0,63.333333333333336,41.800000000000004,31.666666666666668,63.333333333333336,31.666666666666668,21.53333333333333"></polyline></g><g stroke="#000" stroke-opacity="0.02" fill="#222" fill-opacity="0.046" stroke-width="1" transform="translate(253.33333333333334,51.93333333333334)"><polyline points="0,0,31.666666666666668,21.53333333333333,31.666666666666668,63.333333333333336,0,41.800000000000004,0,0"></polyline><polyline points="31.666666666666668,21.53333333333333,63.333333333333336,0,63.333333333333336,41.800000000000004,31.666666666666668,63.333333333333336,31.666666666666668,21.53333333333333"></polyline></g><g stroke="#000" stroke-opacity="0.02" fill="#ddd" fill-opacity="0.10666666666666667" stroke-width="1" transform="translate(316.6666666666667,51.93333333333334)"><polyline points="0,0,31.666666666666668,21.53333333333333,31.666666666666668,63.333333333333336,0,41.800000000000004,0,0"></polyline><polyline points="31.666666666666668,21.53333333333333,63.333333333333336,0,63.333333333333336,41.800000000000004,31.666666666666668,63.333333333333336,31.666666666666668,21.53333333333333"></polyline></g><g stroke="#000" stroke-opacity="0.02" fill="#ddd" fill-opacity="0.03733333333333333" stroke-width="1" transform="translate(0,93.73333333333333)"><polyline points="0,0,31.666666666666668,21.53333333333333,31.666666666666668,63.333333333333336,0,41.800000000000004,0,0"></polyline><polyline points="31.666666666666668,21.53333333333333,63.333333333333336,0,63.333333333333336,41.800000000000004,31.666666666666668,63.333333333333336,31.666666666666668,21.53333333333333"></polyline></g><g stroke="#000" stroke-opacity="0.02" fill="#222" fill-opacity="0.028666666666666667" stroke-width="1" transform="translate(63.333333333333336,93.73333333333333)"><polyline points="0,0,31.666666666666668,21.53333333333333,31.666666666666668,63.333333333333336,0,41.800000000000004,0,0"></polyline><polyline points="31.666666666666668,21.53333333333333,63.333333333333336,0,63.333333333333336,41.800000000000004,31.666666666666668,63.333333333333336,31.666666666666668,21.53333333333333"></polyline></g><g stroke="#000" stroke-opacity="0.02" fill="#222" fill-opacity="0.15" stroke-width="1" transform="translate(126.66666666666667,93.73333333333333)"><polyline points="0,0,31.666666666666668,21.53333333333333,31.666666666666668,63.333333333333336,0,41.800000000000004,0,0"></polyline><polyline points="31.666666666666668,21.53333333333333,63.333333333333336,0,63.333333333333336,41.800000000000004,31.666666666666668,63.333333333333336,31.666666666666668,21.53333333333333"></polyline></g><g stroke="#000" stroke-opacity="0.02" fill="#222" fill-opacity="0.046" stroke-width="1" transform="translate(190,93.73333333333333)"><polyline points="0,0,31.666666666666668,21.53333333333333,31.666666666666668,63.333333333333336,0,41.800000000000004,0,0"></polyline><polyline points="31.666666666666668,21.53333333333333,63.333333333333336,0,63.333333333333336,41.800000000000004,31.666666666666668,63.333333333333336,31.666666666666668,21.53333333333333"></polyline></g><g stroke="#000" stroke-opacity="0.02" fill="#ddd" fill-opacity="0.10666666666666667" stroke-width="1" transform="translate(253.33333333333334,93.73333333333333)"><polyline points="0,0,31.666666666666668,21.53333333333333,31.666666666666668,63.333333333333336,0,41.800000000000004,0,0"></polyline><polyline points="31.666666666666668,21.53333333333333,63.333333333333336,0,63.333333333333336,41.800000000000004,31.666666666666668,63.333333333333336,31.666666666666668,21.53333333333333"></polyline></g><g stroke="#000" stroke-opacity="0.02" fill="#ddd" fill-opacity="0.10666666666666667" stroke-width="1" transform="translate(316.6666666666667,93.73333333333333)"><polyline points="0,0,31.666666666666668,21.53333333333333,31.666666666666668,63.333333333333336,0,41.800000000000004,0,0"></polyline><polyline points="31.666666666666668,21.53333333333333,63.333333333333336,0,63.333333333333336,41.800000000000004,31.666666666666668,63.333333333333336,31.666666666666668,21.53333333333333"></polyline></g><g stroke="#000" stroke-opacity="0.02" fill="#ddd" fill-opacity="0.14133333333333334" stroke-width="1" transform="translate(0,135.53333333333336)"><polyline points="0,0,31.666666666666668,21.53333333333333,31.666666666666668,63.333333333333336,0,41.800000000000004,0,0"></polyline><polyline points="31.666666666666668,21.53333333333333,63.333333333333336,0,63.333333333333336,41.800000000000004,31.666666666666668,63.333333333333336,31.666666666666668,21.53333333333333"></polyline></g><g stroke="#000" stroke-opacity="0.02" fill="#ddd" fill-opacity="0.10666666666666667" stroke-width="1" transform="translate(63.333333333333336,135.53333333333336)"><polyline points="0,0,31.666666666666668,21.53333333333333,31.666666666666668,63.333333333333336,0,41.800000000000004,0,0"></polyline><polyline points="31.666666666666668,21.53333333333333,63.333333333333336,0,63.333333333333336,41.800000000000004,31.666666666666668,63.333333333333336,31.666666666666668,21.53333333333333"></polyline></g><g stroke="#000" stroke-opacity="0.02" fill="#222" fill-opacity="0.06333333333333334" stroke-width="1" transform="translate(126.66666666666667,135.53333333333336)"><polyline points="0,0,31.666666666666668,21.53333333333333,31.666666666666668,63.333333333333336,0,41.800000000000004,0,0"></polyline><polyline points="31.666666666666668,21.53333333333333,63.333333333333336,0,63.333333333333336,41.800000000000004,31.666666666666668,63.333333333333336,31.666666666666668,21.53333333333333"></polyline></g><g stroke="#000" stroke-opacity="0.02" fill="#ddd" fill-opacity="0.07200000000000001" stroke-width="1" transform="translate(190,135.53333333333336)"><polyline points="0,0,31.666666666666668,21.53333333333333,31.666666666666668,63.333333333333336,0,41.800000000000004,0,0"></polyline><polyline points="31.666666666666668,21.53333333333333,63.333333333333336,0,63.333333333333336,41.800000000000004,31.666666666666668,63.333333333333336,31.666666666666668,21.53333333333333"></polyline></g><g stroke="#000" stroke-opacity="0.02" fill="#ddd" fill-opacity="0.10666666666666667" stroke-width="1" transform="translate(253.33333333333334,135.53333333333336)"><polyline points="0,0,31.666666666666668,21.53333333333333,31.666666666666668,63.333333333333336,0,41.800000000000004,0,0"></polyline><polyline points="31.666666666666668,21.53333333333333,63.333333333333336,0,63.333333333333336,41.800000000000004,31.666666666666668,63.333333333333336,31.666666666666668,21.53333333333333"></polyline></g><g stroke="#000" stroke-opacity="0.02" fill="#ddd" fill-opacity="0.14133333333333334" stroke-width="1" transform="translate(316.6666666666667,135.53333333333336)"><polyline points="0,0,31.666666666666668,21.53333333333333,31.666666666666668,63.333333333333336,0,41.800000000000004,0,0"></polyline><polyline points="31.666666666666668,21.53333333333333,63.333333333333336,0,63.333333333333336,41.800000000000004,31.666666666666668,63.333333333333336,31.666666666666668,21.53333333333333"></polyline></g><g stroke="#000" stroke-opacity="0.02" fill="#222" fill-opacity="0.028666666666666667" stroke-width="1" transform="translate(0,177.33333333333337)"><polyline points="0,0,31.666666666666668,21.53333333333333,31.666666666666668,63.333333333333336,0,41.800000000000004,0,0"></polyline><polyline points="31.666666666666668,21.53333333333333,63.333333333333336,0,63.333333333333336,41.800000000000004,31.666666666666668,63.333333333333336,31.666666666666668,21.53333333333333"></polyline></g><g stroke="#000" stroke-opacity="0.02" fill="#ddd" fill-opacity="0.05466666666666667" stroke-width="1" transform="translate(63.333333333333336,177.33333333333337)"><polyline points="0,0,31.666666666666668,21.53333333333333,31.666666666666668,63.333333333333336,0,41.800000000000004,0,0"></polyline><polyline points="31.666666666666668,21.53333333333333,63.333333333333336,0,63.333333333333336,41.800000000000004,31.666666666666668,63.333333333333336,31.666666666666668,21.53333333333333"></polyline></g><g stroke="#000" stroke-opacity="0.02" fill="#222" fill-opacity="0.15" stroke-width="1" transform="translate(126.66666666666667,177.33333333333337)"><polyline points="0,0,31.666666666666668,21.53333333333333,31.666666666666668,63.333333333333336,0,41.800000000000004,0,0"></polyline><polyline points="31.666666666666668,21.53333333333333,63.333333333333336,0,63.333333333333336,41.800000000000004,31.666666666666668,63.333333333333336,31.666666666666668,21.53333333333333"></polyline></g><g stroke="#000" stroke-opacity="0.02" fill="#ddd" fill-opacity="0.03733333333333333" stroke-width="1" transform="translate(190,177.33333333333337)"><polyline points="0,0,31.666666666666668,21.53333333333333,31.666666666666668,63.333333333333336,0,41.800000000000004,0,0"></polyline><polyline points="31.666666666666668,21.53333333333333,63.333333333333336,0,63.333333333333336,41.800000000000004,31.666666666666668,63.333333333333336,31.666666666666668,21.53333333333333"></polyline></g><g stroke="#000" stroke-opacity="0.02" fill="#ddd" fill-opacity="0.05466666666666667" stroke-width="1" transform="translate(253.33333333333334,177.33333333333337)"><polyline points="0,0,31.666666666666668,21.53333333333333,31.666666666666668,63.333333333333336,0,41.800000000000004,0,0"></polyline><polyline points="31.666666666666668,21.53333333333333,63.333333333333336,0,63.333333333333336,41.800000000000004,31.666666666666668,63.333333333333336,31.666666666666668,21.53333333333333"></polyline></g><g stroke="#000" stroke-opacity="0.02" fill="#ddd" fill-opacity="0.07200000000000001" stroke-width="1" transform="translate(316.6666666666667,177.33333333333337)"><polyline points="0,0,31.666666666666668,21.53333333333333,31.666666666666668,63.333333333333336,0,41.800000000000004,0,0"></polyline><polyline points="31.666666666666668,21.53333333333333,63.333333333333336,0,63.333333333333336,41.800000000000004,31.666666666666668,63.333333333333336,31.666666666666668,21.53333333333333"></polyline></g></svg>